<?xml version="1.0" standalone="yes"?>

<svg version="1.1" viewBox="0.0 0.0 560.1758530183727 501.4803149606299" fill="none" stroke="none" stroke-linecap="square" stroke-miterlimit="10" xmlns="http://www.w3.org/2000/svg" xmlns:xlink="http://www.w3.org/1999/xlink"><clipPath id="p.0"><path d="m0 0l560.17584 0l0 501.48032l-560.17584 0l0 -501.48032z" clip-rule="nonzero"></path></clipPath><g clip-path="url(#p.0)"><path fill="#000000" fill-opacity="0.0" d="m0 0l560.17584 0l0 501.48032l-560.17584 0z" fill-rule="nonzero"></path><path fill="#c9daf8" d="m52.947506 124.23622l0 0c0 -46.36583 37.586933 -83.95276 83.95276 -83.95276l0 0c22.265656 0 43.61937 8.844994 59.363556 24.589191c15.744202 15.744194 24.589203 37.097908 24.589203 59.363564l0 0c0 46.36583 -37.58693 83.95276 -83.95276 83.95276l0 0c-46.36583 0 -83.95276 -37.58693 -83.95276 -83.95276z" fill-rule="nonzero"></path><path stroke="#000000" stroke-width="1.0" stroke-linejoin="round" stroke-linecap="butt" d="m52.947506 124.23622l0 0c0 -46.36583 37.586933 -83.95276 83.95276 -83.95276l0 0c22.265656 0 43.61937 8.844994 59.363556 24.589191c15.744202 15.744194 24.589203 37.097908 24.589203 59.363564l0 0c0 46.36583 -37.58693 83.95276 -83.95276 83.95276l0 0c-46.36583 0 -83.95276 -37.58693 -83.95276 -83.95276z" fill-rule="nonzero"></path><path fill="#9fc5e8" d="m75.78215 124.23622l0 0c0 -33.7546 27.36351 -61.11811 61.11812 -61.11811l0 0c16.209518 0 31.755157 6.439209 43.217026 17.901077c11.461868 11.461868 17.901077 27.0075 17.901077 43.217033l0 0c0 33.754593 -27.36351 61.118103 -61.118103 61.118103l0 0c-33.75461 0 -61.11812 -27.36351 -61.11812 -61.118103z" fill-rule="nonzero"></path><path stroke="#000000" stroke-width="1.0" stroke-linejoin="round" stroke-linecap="butt" d="m75.78215 124.23622l0 0c0 -33.7546 27.36351 -61.11811 61.11812 -61.11811l0 0c16.209518 0 31.755157 6.439209 43.217026 17.901077c11.461868 11.461868 17.901077 27.0075 17.901077 43.217033l0 0c0 33.754593 -27.36351 61.118103 -61.118103 61.118103l0 0c-33.75461 0 -61.11812 -27.36351 -61.11812 -61.118103z" fill-rule="nonzero"></path><path fill="#3d85c6" d="m95.26247 124.23622l0 0c0 -22.995918 18.641876 -41.637794 41.637802 -41.637794l0 0c11.04303 0 21.633759 4.3868256 29.442368 12.195427c7.8085938 7.8086014 12.195419 18.399338 12.195419 29.442368l0 0c0 22.995926 -18.641876 41.637802 -41.637787 41.637802l0 0c-22.995926 0 -41.637802 -18.641876 -41.637802 -41.637802z" fill-rule="nonzero"></path><path stroke="#000000" stroke-width="1.0" stroke-linejoin="round" stroke-linecap="butt" d="m95.26247 124.23622l0 0c0 -22.995918 18.641876 -41.637794 41.637802 -41.637794l0 0c11.04303 0 21.633759 4.3868256 29.442368 12.195427c7.8085938 7.8086014 12.195419 18.399338 12.195419 29.442368l0 0c0 22.995926 -18.641876 41.637802 -41.637787 41.637802l0 0c-22.995926 0 -41.637802 -18.641876 -41.637802 -41.637802z" fill-rule="nonzero"></path><path fill="#0000ff" d="m121.45145 124.23622l0 0c0 -8.53215 6.9166718 -15.448822 15.448822 -15.448822l0 0c4.097275 0 8.026749 1.6276398 10.923965 4.5248566c2.8972015 2.8972168 4.5248413 6.826683 4.5248413 10.923965l0 0c0 8.53215 -6.9166718 15.448822 -15.448807 15.448822l0 0c-8.53215 0 -15.448822 -6.9166718 -15.448822 -15.448822z" fill-rule="nonzero"></path><path stroke="#000000" stroke-width="1.0" stroke-linejoin="round" stroke-linecap="butt" d="m121.45145 124.23622l0 0c0 -8.53215 6.9166718 -15.448822 15.448822 -15.448822l0 0c4.097275 0 8.026749 1.6276398 10.923965 4.5248566c2.8972015 2.8972168 4.5248413 6.826683 4.5248413 10.923965l0 0c0 8.53215 -6.9166718 15.448822 -15.448807 15.448822l0 0c-8.53215 0 -15.448822 -6.9166718 -15.448822 -15.448822z" fill-rule="nonzero"></path><path fill="#c9daf8" d="m353.71915 124.23622l0 0c0 -46.36583 37.586945 -83.95276 83.95276 -83.95276l0 0c22.265656 0 43.619385 8.844994 59.363586 24.589191c15.744171 15.744194 24.589203 37.097908 24.589203 59.363564l0 0c0 46.36583 -37.586945 83.95276 -83.95279 83.95276l0 0c-46.365814 0 -83.95276 -37.58693 -83.95276 -83.95276z" fill-rule="nonzero"></path><path stroke="#000000" stroke-width="1.0" stroke-linejoin="round" stroke-linecap="butt" d="m353.71915 124.23622l0 0c0 -46.36583 37.586945 -83.95276 83.95276 -83.95276l0 0c22.265656 0 43.619385 8.844994 59.363586 24.589191c15.744171 15.744194 24.589203 37.097908 24.589203 59.363564l0 0c0 46.36583 -37.586945 83.95276 -83.95279 83.95276l0 0c-46.365814 0 -83.95276 -37.58693 -83.95276 -83.95276z" fill-rule="nonzero"></path><path fill="#9fc5e8" d="m376.5538 124.23622l0 0c0 -33.7546 27.363525 -61.11811 61.118103 -61.11811l0 0c16.209534 0 31.755157 6.439209 43.21704 17.901077c11.461853 11.461868 17.901093 27.0075 17.901093 43.217033l0 0c0 33.754593 -27.363525 61.118103 -61.118134 61.118103l0 0c-33.754578 0 -61.118103 -27.36351 -61.118103 -61.118103z" fill-rule="nonzero"></path><path stroke="#000000" stroke-width="1.0" stroke-linejoin="round" stroke-linecap="butt" d="m376.5538 124.23622l0 0c0 -33.7546 27.363525 -61.11811 61.118103 -61.11811l0 0c16.209534 0 31.755157 6.439209 43.21704 17.901077c11.461853 11.461868 17.901093 27.0075 17.901093 43.217033l0 0c0 33.754593 -27.363525 61.118103 -61.118134 61.118103l0 0c-33.754578 0 -61.118103 -27.36351 -61.118103 -61.118103z" fill-rule="nonzero"></path><path fill="#3d85c6" d="m396.03412 124.23622l0 0c0 -22.995918 18.641876 -41.637794 41.637787 -41.637794l0 0c11.04303 0 21.63379 4.3868256 29.442383 12.195427c7.8085938 7.8086014 12.195435 18.399338 12.195435 29.442368l0 0c0 22.995926 -18.641876 41.637802 -41.637817 41.637802l0 0c-22.99591 0 -41.637787 -18.641876 -41.637787 -41.637802z" fill-rule="nonzero"></path><path stroke="#000000" stroke-width="1.0" stroke-linejoin="round" stroke-linecap="butt" d="m396.03412 124.23622l0 0c0 -22.995918 18.641876 -41.637794 41.637787 -41.637794l0 0c11.04303 0 21.63379 4.3868256 29.442383 12.195427c7.8085938 7.8086014 12.195435 18.399338 12.195435 29.442368l0 0c0 22.995926 -18.641876 41.637802 -41.637817 41.637802l0 0c-22.99591 0 -41.637787 -18.641876 -41.637787 -41.637802z" fill-rule="nonzero"></path><path fill="#0000ff" d="m422.22308 124.23622l0 0c0 -8.53215 6.916687 -15.448822 15.448822 -15.448822l0 0c4.09729 0 8.026764 1.6276398 10.923981 4.5248566c2.8972168 2.8972168 4.5248413 6.826683 4.5248413 10.923965l0 0c0 8.53215 -6.9166565 15.448822 -15.448822 15.448822l0 0c-8.532135 0 -15.448822 -6.9166718 -15.448822 -15.448822z" fill-rule="nonzero"></path><path stroke="#000000" stroke-width="1.0" stroke-linejoin="round" stroke-linecap="butt" d="m422.22308 124.23622l0 0c0 -8.53215 6.916687 -15.448822 15.448822 -15.448822l0 0c4.09729 0 8.026764 1.6276398 10.923981 4.5248566c2.8972168 2.8972168 4.5248413 6.826683 4.5248413 10.923965l0 0c0 8.53215 -6.9166565 15.448822 -15.448822 15.448822l0 0c-8.532135 0 -15.448822 -6.9166718 -15.448822 -15.448822z" fill-rule="nonzero"></path><path fill="#c9daf8" d="m52.947506 380.5643l0 0c0 -46.365814 37.586933 -83.95276 83.95276 -83.95276l0 0c22.265656 0 43.61937 8.845001 59.363556 24.589203c15.744202 15.744202 24.589203 37.0979 24.589203 59.363556l0 0c0 46.365845 -37.58693 83.95276 -83.95276 83.95276l0 0c-46.36583 0 -83.95276 -37.586914 -83.95276 -83.95276z" fill-rule="nonzero"></path><path stroke="#000000" stroke-width="1.0" stroke-linejoin="round" stroke-linecap="butt" d="m52.947506 380.5643l0 0c0 -46.365814 37.586933 -83.95276 83.95276 -83.95276l0 0c22.265656 0 43.61937 8.845001 59.363556 24.589203c15.744202 15.744202 24.589203 37.0979 24.589203 59.363556l0 0c0 46.365845 -37.58693 83.95276 -83.95276 83.95276l0 0c-46.36583 0 -83.95276 -37.586914 -83.95276 -83.95276z" fill-rule="nonzero"></path><path fill="#9fc5e8" d="m75.78215 380.5643l0 0c0 -33.75461 27.36351 -61.118103 61.11812 -61.118103l0 0c16.209518 0 31.755157 6.439209 43.217026 17.901062c11.461868 11.461884 17.901077 27.007507 17.901077 43.21704l0 0c0 33.75461 -27.36351 61.118103 -61.118103 61.118103l0 0c-33.75461 0 -61.11812 -27.363495 -61.11812 -61.118103z" fill-rule="nonzero"></path><path stroke="#000000" stroke-width="1.0" stroke-linejoin="round" stroke-linecap="butt" d="m75.78215 380.5643l0 0c0 -33.75461 27.36351 -61.118103 61.11812 -61.118103l0 0c16.209518 0 31.755157 6.439209 43.217026 17.901062c11.461868 11.461884 17.901077 27.007507 17.901077 43.21704l0 0c0 33.75461 -27.36351 61.118103 -61.118103 61.118103l0 0c-33.75461 0 -61.11812 -27.363495 -61.11812 -61.118103z" fill-rule="nonzero"></path><path fill="#3d85c6" d="m95.26247 380.5643l0 0c0 -22.99591 18.641876 -41.637787 41.637802 -41.637787l0 0c11.04303 0 21.633759 4.3868103 29.442368 12.195435c7.8085938 7.8085938 12.195419 18.399323 12.195419 29.442352l0 0c0 22.99591 -18.641876 41.637787 -41.637787 41.637787l0 0c-22.995926 0 -41.637802 -18.641876 -41.637802 -41.637787z" fill-rule="nonzero"></path><path stroke="#000000" stroke-width="1.0" stroke-linejoin="round" stroke-linecap="butt" d="m95.26247 380.5643l0 0c0 -22.99591 18.641876 -41.637787 41.637802 -41.637787l0 0c11.04303 0 21.633759 4.3868103 29.442368 12.195435c7.8085938 7.8085938 12.195419 18.399323 12.195419 29.442352l0 0c0 22.99591 -18.641876 41.637787 -41.637787 41.637787l0 0c-22.995926 0 -41.637802 -18.641876 -41.637802 -41.637787z" fill-rule="nonzero"></path><path fill="#0000ff" d="m121.45145 380.5643l0 0c0 -8.532135 6.9166718 -15.448822 15.448822 -15.448822l0 0c4.097275 0 8.026749 1.627655 10.923965 4.524872c2.8972015 2.8972168 4.5248413 6.82666 4.5248413 10.92395l0 0c0 8.532166 -6.9166718 15.448822 -15.448807 15.448822l0 0c-8.53215 0 -15.448822 -6.9166565 -15.448822 -15.448822z" fill-rule="nonzero"></path><path stroke="#000000" stroke-width="1.0" stroke-linejoin="round" stroke-linecap="butt" d="m121.45145 380.5643l0 0c0 -8.532135 6.9166718 -15.448822 15.448822 -15.448822l0 0c4.097275 0 8.026749 1.627655 10.923965 4.524872c2.8972015 2.8972168 4.5248413 6.82666 4.5248413 10.92395l0 0c0 8.532166 -6.9166718 15.448822 -15.448807 15.448822l0 0c-8.53215 0 -15.448822 -6.9166565 -15.448822 -15.448822z" fill-rule="nonzero"></path><path fill="#c9daf8" d="m353.71915 380.5643l0 0c0 -46.365814 37.586945 -83.95276 83.95276 -83.95276l0 0c22.265656 0 43.619385 8.845001 59.363586 24.589203c15.744171 15.744202 24.589203 37.0979 24.589203 59.363556l0 0c0 46.365845 -37.586945 83.95276 -83.95279 83.95276l0 0c-46.365814 0 -83.95276 -37.586914 -83.95276 -83.95276z" fill-rule="nonzero"></path><path stroke="#000000" stroke-width="1.0" stroke-linejoin="round" stroke-linecap="butt" d="m353.71915 380.5643l0 0c0 -46.365814 37.586945 -83.95276 83.95276 -83.95276l0 0c22.265656 0 43.619385 8.845001 59.363586 24.589203c15.744171 15.744202 24.589203 37.0979 24.589203 59.363556l0 0c0 46.365845 -37.586945 83.95276 -83.95279 83.95276l0 0c-46.365814 0 -83.95276 -37.586914 -83.95276 -83.95276z" fill-rule="nonzero"></path><path fill="#9fc5e8" d="m376.5538 380.5643l0 0c0 -33.75461 27.363525 -61.118103 61.118103 -61.118103l0 0c16.209534 0 31.755157 6.439209 43.21704 17.901062c11.461853 11.461884 17.901093 27.007507 17.901093 43.21704l0 0c0 33.75461 -27.363525 61.118103 -61.118134 61.118103l0 0c-33.754578 0 -61.118103 -27.363495 -61.118103 -61.118103z" fill-rule="nonzero"></path><path stroke="#000000" stroke-width="1.0" stroke-linejoin="round" stroke-linecap="butt" d="m376.5538 380.5643l0 0c0 -33.75461 27.363525 -61.118103 61.118103 -61.118103l0 0c16.209534 0 31.755157 6.439209 43.21704 17.901062c11.461853 11.461884 17.901093 27.007507 17.901093 43.21704l0 0c0 33.75461 -27.363525 61.118103 -61.118134 61.118103l0 0c-33.754578 0 -61.118103 -27.363495 -61.118103 -61.118103z" fill-rule="nonzero"></path><path fill="#3d85c6" d="m396.03412 380.5643l0 0c0 -22.99591 18.641876 -41.637787 41.637787 -41.637787l0 0c11.04303 0 21.63379 4.3868103 29.442383 12.195435c7.8085938 7.8085938 12.195435 18.399323 12.195435 29.442352l0 0c0 22.99591 -18.641876 41.637787 -41.637817 41.637787l0 0c-22.99591 0 -41.637787 -18.641876 -41.637787 -41.637787z" fill-rule="nonzero"></path><path stroke="#000000" stroke-width="1.0" stroke-linejoin="round" stroke-linecap="butt" d="m396.03412 380.5643l0 0c0 -22.99591 18.641876 -41.637787 41.637787 -41.637787l0 0c11.04303 0 21.63379 4.3868103 29.442383 12.195435c7.8085938 7.8085938 12.195435 18.399323 12.195435 29.442352l0 0c0 22.99591 -18.641876 41.637787 -41.637817 41.637787l0 0c-22.99591 0 -41.637787 -18.641876 -41.637787 -41.637787z" fill-rule="nonzero"></path><path fill="#0000ff" d="m422.22308 380.5643l0 0c0 -8.532135 6.916687 -15.448822 15.448822 -15.448822l0 0c4.09729 0 8.026764 1.627655 10.923981 4.524872c2.8972168 2.8972168 4.5248413 6.82666 4.5248413 10.92395l0 0c0 8.532166 -6.9166565 15.448822 -15.448822 15.448822l0 0c-8.532135 0 -15.448822 -6.9166565 -15.448822 -15.448822z" fill-rule="nonzero"></path><path stroke="#000000" stroke-width="1.0" stroke-linejoin="round" stroke-linecap="butt" d="m422.22308 380.5643l0 0c0 -8.532135 6.916687 -15.448822 15.448822 -15.448822l0 0c4.09729 0 8.026764 1.627655 10.923981 4.524872c2.8972168 2.8972168 4.5248413 6.82666 4.5248413 10.92395l0 0c0 8.532166 -6.9166565 15.448822 -15.448822 15.448822l0 0c-8.532135 0 -15.448822 -6.9166565 -15.448822 -15.448822z" fill-rule="nonzero"></path><path fill="#cc0000" d="m133.2126 126.637794l0 0c0 -2.226532 1.8049622 -4.031494 4.031494 -4.031494l0 0c1.0692139 0 2.0946503 0.42474365 2.8506927 1.1807938c0.75605774 0.75605774 1.1808014 1.7814789 1.1808014 2.8507004l0 0c0 2.2265396 -1.8049622 4.031502 -4.031494 4.031502l0 0c-2.226532 0 -4.031494 -1.8049622 -4.031494 -4.031502z" fill-rule="nonzero"></path><path stroke="#000000" stroke-width="1.0" stroke-linejoin="round" stroke-linecap="butt" d="m133.2126 126.637794l0 0c0 -2.226532 1.8049622 -4.031494 4.031494 -4.031494l0 0c1.0692139 0 2.0946503 0.42474365 2.8506927 1.1807938c0.75605774 0.75605774 1.1808014 1.7814789 1.1808014 2.8507004l0 0c0 2.2265396 -1.8049622 4.031502 -4.031494 4.031502l0 0c-2.226532 0 -4.031494 -1.8049622 -4.031494 -4.031502z" fill-rule="nonzero"></path><path fill="#cc0000" d="m125.2126 126.637794l0 0c0 -2.226532 1.8049622 -4.031494 4.031494 -4.031494l0 0c1.0692139 0 2.0946503 0.42474365 2.8506927 1.1807938c0.75605774 0.75605774 1.1808014 1.7814789 1.1808014 2.8507004l0 0c0 2.2265396 -1.8049622 4.031502 -4.031494 4.031502l0 0c-2.226532 0 -4.031494 -1.8049622 -4.031494 -4.031502z" fill-rule="nonzero"></path><path stroke="#000000" stroke-width="1.0" stroke-linejoin="round" stroke-linecap="butt" d="m125.2126 126.637794l0 0c0 -2.226532 1.8049622 -4.031494 4.031494 -4.031494l0 0c1.0692139 0 2.0946503 0.42474365 2.8506927 1.1807938c0.75605774 0.75605774 1.1808014 1.7814789 1.1808014 2.8507004l0 0c0 2.2265396 -1.8049622 4.031502 -4.031494 4.031502l0 0c-2.226532 0 -4.031494 -1.8049622 -4.031494 -4.031502z" fill-rule="nonzero"></path><path fill="#cc0000" d="m125.2126 118.637794l0 0c0 -2.226532 1.8049622 -4.031494 4.031494 -4.031494l0 0c1.0692139 0 2.0946503 0.42474365 2.8506927 1.1807938c0.75605774 0.75605774 1.1808014 1.7814789 1.1808014 2.8507004l0 0c0 2.226532 -1.8049622 4.031494 -4.031494 4.031494l0 0c-2.226532 0 -4.031494 -1.8049622 -4.031494 -4.031494z" fill-rule="nonzero"></path><path stroke="#000000" stroke-width="1.0" stroke-linejoin="round" stroke-linecap="butt" d="m125.2126 118.637794l0 0c0 -2.226532 1.8049622 -4.031494 4.031494 -4.031494l0 0c1.0692139 0 2.0946503 0.42474365 2.8506927 1.1807938c0.75605774 0.75605774 1.1808014 1.7814789 1.1808014 2.8507004l0 0c0 2.226532 -1.8049622 4.031494 -4.031494 4.031494l0 0c-2.226532 0 -4.031494 -1.8049622 -4.031494 -4.031494z" fill-rule="nonzero"></path><path fill="#cc0000" d="m133.2126 118.637794l0 0c0 -2.226532 1.8049622 -4.031494 4.031494 -4.031494l0 0c1.0692139 0 2.0946503 0.42474365 2.8506927 1.1807938c0.75605774 0.75605774 1.1808014 1.7814789 1.1808014 2.8507004l0 0c0 2.226532 -1.8049622 4.031494 -4.031494 4.031494l0 0c-2.226532 0 -4.031494 -1.8049622 -4.031494 -4.031494z" fill-rule="nonzero"></path><path stroke="#000000" stroke-width="1.0" stroke-linejoin="round" stroke-linecap="butt" d="m133.2126 118.637794l0 0c0 -2.226532 1.8049622 -4.031494 4.031494 -4.031494l0 0c1.0692139 0 2.0946503 0.42474365 2.8506927 1.1807938c0.75605774 0.75605774 1.1808014 1.7814789 1.1808014 2.8507004l0 0c0 2.226532 -1.8049622 4.031494 -4.031494 4.031494l0 0c-2.226532 0 -4.031494 -1.8049622 -4.031494 -4.031494z" fill-rule="nonzero"></path><path fill="#cc0000" d="m141.2126 126.637794l0 0c0 -2.226532 1.8049622 -4.031494 4.031494 -4.031494l0 0c1.0692139 0 2.0946503 0.42474365 2.8506927 1.1807938c0.75605774 0.75605774 1.1808014 1.7814789 1.1808014 2.8507004l0 0c0 2.2265396 -1.8049622 4.031502 -4.031494 4.031502l0 0c-2.226532 0 -4.031494 -1.8049622 -4.031494 -4.031502z" fill-rule="nonzero"></path><path stroke="#000000" stroke-width="1.0" stroke-linejoin="round" stroke-linecap="butt" d="m141.2126 126.637794l0 0c0 -2.226532 1.8049622 -4.031494 4.031494 -4.031494l0 0c1.0692139 0 2.0946503 0.42474365 2.8506927 1.1807938c0.75605774 0.75605774 1.1808014 1.7814789 1.1808014 2.8507004l0 0c0 2.2265396 -1.8049622 4.031502 -4.031494 4.031502l0 0c-2.226532 0 -4.031494 -1.8049622 -4.031494 -4.031502z" fill-rule="nonzero"></path><path fill="#cc0000" d="m141.2126 118.637794l0 0c0 -2.226532 1.8049622 -4.031494 4.031494 -4.031494l0 0c1.0692139 0 2.0946503 0.42474365 2.8506927 1.1807938c0.75605774 0.75605774 1.1808014 1.7814789 1.1808014 2.8507004l0 0c0 2.226532 -1.8049622 4.031494 -4.031494 4.031494l0 0c-2.226532 0 -4.031494 -1.8049622 -4.031494 -4.031494z" fill-rule="nonzero"></path><path stroke="#000000" stroke-width="1.0" stroke-linejoin="round" stroke-linecap="butt" d="m141.2126 118.637794l0 0c0 -2.226532 1.8049622 -4.031494 4.031494 -4.031494l0 0c1.0692139 0 2.0946503 0.42474365 2.8506927 1.1807938c0.75605774 0.75605774 1.1808014 1.7814789 1.1808014 2.8507004l0 0c0 2.226532 -1.8049622 4.031494 -4.031494 4.031494l0 0c-2.226532 0 -4.031494 -1.8049622 -4.031494 -4.031494z" fill-rule="nonzero"></path><path fill="#cc0000" d="m441.5092 118.69554l0 0c0 2.226532 -1.8049622 4.031494 -4.031494 4.031494l0 0c-1.0692139 0 -2.094635 -0.42474365 -2.850708 -1.1808014c-0.7560425 -0.7560501 -1.1807861 -1.7814789 -1.1807861 -2.8506927l0 0c0 -2.2265396 1.8049622 -4.031502 4.031494 -4.031502l0 0c2.226532 0 4.031494 1.8049622 4.031494 4.031502z" fill-rule="nonzero"></path><path stroke="#000000" stroke-width="1.0" stroke-linejoin="round" stroke-linecap="butt" d="m441.5092 118.69554l0 0c0 2.226532 -1.8049622 4.031494 -4.031494 4.031494l0 0c-1.0692139 0 -2.094635 -0.42474365 -2.850708 -1.1808014c-0.7560425 -0.7560501 -1.1807861 -1.7814789 -1.1807861 -2.8506927l0 0c0 -2.2265396 1.8049622 -4.031502 4.031494 -4.031502l0 0c2.226532 0 4.031494 1.8049622 4.031494 4.031502z" fill-rule="nonzero"></path><path fill="#cc0000" d="m425.5092 126.69554l0 0c0 2.226532 -1.8049622 4.031494 -4.031494 4.031494l0 0c-1.0692139 0 -2.094635 -0.42474365 -2.850708 -1.1808014c-0.7560425 -0.7560425 -1.1807861 -1.7814789 -1.1807861 -2.8506927l0 0c0 -2.2265396 1.8049622 -4.031502 4.031494 -4.031502l0 0c2.226532 0 4.031494 1.8049622 4.031494 4.031502z" fill-rule="nonzero"></path><path stroke="#000000" stroke-width="1.0" stroke-linejoin="round" stroke-linecap="butt" d="m425.5092 126.69554l0 0c0 2.226532 -1.8049622 4.031494 -4.031494 4.031494l0 0c-1.0692139 0 -2.094635 -0.42474365 -2.850708 -1.1808014c-0.7560425 -0.7560425 -1.1807861 -1.7814789 -1.1807861 -2.8506927l0 0c0 -2.2265396 1.8049622 -4.031502 4.031494 -4.031502l0 0c2.226532 0 4.031494 1.8049622 4.031494 4.031502z" fill-rule="nonzero"></path><path fill="#cc0000" d="m457.5092 134.69554l0 0c0 2.226532 -1.8049622 4.031494 -4.031494 4.031494l0 0c-1.0692139 0 -2.094635 -0.42474365 -2.850708 -1.1808014c-0.7560425 -0.7560425 -1.1807861 -1.7814789 -1.1807861 -2.8506927l0 0c0 -2.226532 1.8049622 -4.031494 4.031494 -4.031494l0 0c2.226532 0 4.031494 1.8049622 4.031494 4.031494z" fill-rule="nonzero"></path><path stroke="#000000" stroke-width="1.0" stroke-linejoin="round" stroke-linecap="butt" d="m457.5092 134.69554l0 0c0 2.226532 -1.8049622 4.031494 -4.031494 4.031494l0 0c-1.0692139 0 -2.094635 -0.42474365 -2.850708 -1.1808014c-0.7560425 -0.7560425 -1.1807861 -1.7814789 -1.1807861 -2.8506927l0 0c0 -2.226532 1.8049622 -4.031494 4.031494 -4.031494l0 0c2.226532 0 4.031494 1.8049622 4.031494 4.031494z" fill-rule="nonzero"></path><path fill="#cc0000" d="m441.5092 94.69554l0 0c0 2.226532 -1.8049622 4.031494 -4.031494 4.031494l0 0c-1.0692139 0 -2.094635 -0.42474365 -2.850708 -1.1808014c-0.7560425 -0.7560501 -1.1807861 -1.7814789 -1.1807861 -2.8506927l0 0c0 -2.2265396 1.8049622 -4.031502 4.031494 -4.031502l0 0c2.226532 0 4.031494 1.8049622 4.031494 4.031502z" fill-rule="nonzero"></path><path stroke="#000000" stroke-width="1.0" stroke-linejoin="round" stroke-linecap="butt" d="m441.5092 94.69554l0 0c0 2.226532 -1.8049622 4.031494 -4.031494 4.031494l0 0c-1.0692139 0 -2.094635 -0.42474365 -2.850708 -1.1808014c-0.7560425 -0.7560501 -1.1807861 -1.7814789 -1.1807861 -2.8506927l0 0c0 -2.2265396 1.8049622 -4.031502 4.031494 -4.031502l0 0c2.226532 0 4.031494 1.8049622 4.031494 4.031502z" fill-rule="nonzero"></path><path fill="#cc0000" d="m425.5092 150.69554l0 0c0 2.226532 -1.8049622 4.031494 -4.031494 4.031494l0 0c-1.0692139 0 -2.094635 -0.42474365 -2.850708 -1.1808014c-0.7560425 -0.7560425 -1.1807861 -1.7814789 -1.1807861 -2.8506927l0 0c0 -2.226532 1.8049622 -4.031494 4.031494 -4.031494l0 0c2.226532 0 4.031494 1.8049622 4.031494 4.031494z" fill-rule="nonzero"></path><path stroke="#000000" stroke-width="1.0" stroke-linejoin="round" stroke-linecap="butt" d="m425.5092 150.69554l0 0c0 2.226532 -1.8049622 4.031494 -4.031494 4.031494l0 0c-1.0692139 0 -2.094635 -0.42474365 -2.850708 -1.1808014c-0.7560425 -0.7560425 -1.1807861 -1.7814789 -1.1807861 -2.8506927l0 0c0 -2.226532 1.8049622 -4.031494 4.031494 -4.031494l0 0c2.226532 0 4.031494 1.8049622 4.031494 4.031494z" fill-rule="nonzero"></path><path fill="#cc0000" d="m473.5092 110.69554l0 0c0 2.226532 -1.8049622 4.031494 -4.031494 4.031494l0 0c-1.0692139 0 -2.094635 -0.42474365 -2.850708 -1.1808014c-0.7560425 -0.7560501 -1.1807861 -1.7814789 -1.1807861 -2.8506927l0 0c0 -2.2265396 1.8049622 -4.031502 4.031494 -4.031502l0 0c2.226532 0 4.031494 1.8049622 4.031494 4.031502z" fill-rule="nonzero"></path><path stroke="#000000" stroke-width="1.0" stroke-linejoin="round" stroke-linecap="butt" d="m473.5092 110.69554l0 0c0 2.226532 -1.8049622 4.031494 -4.031494 4.031494l0 0c-1.0692139 0 -2.094635 -0.42474365 -2.850708 -1.1808014c-0.7560425 -0.7560501 -1.1807861 -1.7814789 -1.1807861 -2.8506927l0 0c0 -2.2265396 1.8049622 -4.031502 4.031494 -4.031502l0 0c2.226532 0 4.031494 1.8049622 4.031494 4.031502z" fill-rule="nonzero"></path><path fill="#000000" fill-opacity="0.0" d="m62.692913 0l149.10236 0l0 40.283466l-149.10236 0z" fill-rule="nonzero"></path><path fill="#000000" d="m71.47417 26.123123l0.25 0q0.890625 0 1.28125 -0.34375q0.390625 -0.359375 0.546875 -1.015625l1.984375 -9.3125q0.078125 -0.359375 0.078125 -0.53125q0 -0.765625 -1.375 -0.765625l-0.25 0l0.171875 -0.796875l5.53125 0l-0.171875 0.796875l-0.25 0q-0.890625 0 -1.28125 0.328125q-0.390625 0.3125 -0.53125 0.96875l-2.25 10.515625l3.734375 0q1.46875 0 2.03125 -1.703125l0.5 -1.421875l0.984375 0l-0.984375 4.078125l-10.15625 0l0.15625 -0.796875zm18.311218 -9.578125q1.6875 0 2.640625 1.015625q0.96875 1.015625 0.96875 2.921875q0 2.53125 -1.546875 4.578125q-1.546875 2.046875 -4.0625 2.046875q-1.71875 0 -2.6875 -1.03125q-0.96875 -1.046875 -0.96875 -2.890625q0 -2.5625 1.5625 -4.59375q1.5625 -2.046875 4.09375 -2.046875zm-1.796875 9.625q1.578125 0 2.5 -1.859375q0.9375 -1.859375 0.9375 -4.109375q0 -2.65625 -1.859375 -2.65625q-1.546875 0 -2.5 1.875q-0.953125 1.859375 -0.953125 4.140625q0 2.609375 1.875 2.609375zm8.322144 0.921875l-0.140625 -8.1875q0 -0.671875 -0.265625 -1.015625q-0.25 -0.359375 -0.984375 -0.359375l-0.1875 0l0.265625 -0.796875l2.859375 0q0.046875 4.015625 0.046875 8.671875l0.078125 0q2.46875 -4.359375 4.234375 -8.5l1.578125 -0.0625q0.40625 5.0 0.40625 8.6875l0.125 0q1.546875 -1.90625 2.5625 -3.765625q1.015625 -1.859375 1.015625 -2.953125q0 -0.875 -0.828125 -1.140625q0.171875 -1.125 1.125 -1.125q1.0 0 1.0 1.421875q0 2.734375 -4.765625 8.9375l-1.875 0.203125l-0.28125 -8.21875q-0.859375 2.046875 -4.015625 7.96875l-1.953125 0.234375zm23.763504 -2.03125q0.71875 -1.640625 1.546875 -3.125l3.375 -6.03125q0.359375 -0.65625 0.359375 -1.078125q0 -0.671875 -1.046875 -0.671875l-0.4375 0l0.140625 -0.796875l4.703125 0l-0.1875 0.796875l-0.359375 0q-0.640625 0 -0.96875 0.328125q-0.3125 0.328125 -0.765625 1.140625l-6.328125 11.296875l-1.390625 0l-1.625 -11.765625q-0.078125 -0.5625 -0.3125 -0.78125q-0.234375 -0.21875 -0.8125 -0.21875l-0.25 0l0.15625 -0.796875l5.171875 0l-0.140625 0.796875l-0.4375 0q-0.609375 0 -1.0 0.265625q-0.375 0.25 -0.375 0.703125q0 0.328125 0.046875 0.640625l0.75 6.171875q0.1875 1.59375 0.1875 3.125zm13.60495 -1.0l-0.125 0q-1.359375 3.046875 -3.546875 3.046875q-1.15625 0 -1.8125 -0.90625q-0.640625 -0.921875 -0.640625 -2.5625q0 -2.625 1.625 -4.859375q1.640625 -2.234375 4.03125 -2.234375q1.296875 0 2.234375 0.6875l0.828125 -0.484375l0.625 0l-1.3125 6.09375q-0.265625 1.296875 -0.265625 2.109375q0 0.953125 0.609375 0.953125q0.546875 0 1.375 -0.484375l0.34375 0.546875q-1.359375 1.140625 -2.671875 1.140625q-1.484375 0 -1.484375 -1.578125q0 -0.609375 0.1875 -1.46875zm1.078125 -5.96875q-0.4375 -0.6875 -1.4375 -0.6875q-1.625 0 -2.734375 2.0625q-1.09375 2.0625 -1.09375 4.25q0 2.1875 1.203125 2.1875q0.953125 0 1.984375 -1.390625q1.046875 -1.40625 1.375 -3.0625l0.703125 -3.359375zm10.194489 1.21875q0 -1.515625 -0.75 -1.515625q-0.890625 0 -1.875 1.734375q-0.984375 1.734375 -1.453125 3.9375l-0.71875 3.453125l-1.78125 0l1.609375 -7.640625q0.109375 -0.53125 0.109375 -0.84375q0 -0.90625 -1.515625 -0.90625l-0.15625 0l0.171875 -0.796875l3.359375 0l-0.390625 2.734375l0.1875 0q0.765625 -1.6875 1.5 -2.296875q0.75 -0.625 1.734375 -0.625q1.546875 0 1.546875 1.3125q0 1.453125 -1.578125 1.453125zm5.586273 -4.484375q-1.078125 0 -1.078125 -1.03125q0 -0.609375 0.3125 -0.96875q0.3125 -0.375 0.828125 -0.375q1.078125 0 1.078125 1.046875q0 0.65625 -0.328125 1.0q-0.3125 0.328125 -0.8125 0.328125zm-3.09375 2.703125l0.171875 -0.796875l3.40625 0l-1.296875 6.109375q-0.28125 1.359375 -0.28125 2.109375q0 0.953125 0.625 0.953125q0.546875 0 1.375 -0.484375l0.34375 0.546875q-1.328125 1.140625 -2.578125 1.140625q-0.703125 0 -1.140625 -0.5q-0.4375 -0.515625 -0.4375 -1.296875q0 -0.859375 0.4375 -3.0l0.734375 -3.484375q0.0625 -0.296875 0.0625 -0.5q0 -0.796875 -1.171875 -0.796875l-0.25 0zm11.440842 6.53125l-0.125 0q-1.359375 3.046875 -3.546875 3.046875q-1.15625 0 -1.8125 -0.90625q-0.640625 -0.921875 -0.640625 -2.5625q0 -2.625 1.625 -4.859375q1.640625 -2.234375 4.03125 -2.234375q1.296875 0 2.234375 0.6875l0.828125 -0.484375l0.625 0l-1.3125 6.09375q-0.265625 1.296875 -0.265625 2.109375q0 0.953125 0.609375 0.953125q0.546875 0 1.375 -0.484375l0.34375 0.546875q-1.359375 1.140625 -2.671875 1.140625q-1.484375 0 -1.484375 -1.578125q0 -0.609375 0.1875 -1.46875zm1.078125 -5.96875q-0.4375 -0.6875 -1.4375 -0.6875q-1.625 0 -2.734375 2.0625q-1.09375 2.0625 -1.09375 4.25q0 2.1875 1.203125 2.1875q0.953125 0 1.984375 -1.390625q1.046875 -1.40625 1.375 -3.0625l0.703125 -3.359375zm5.3976135 8.828125l-1.78125 0l1.609375 -7.640625q0.109375 -0.53125 0.109375 -0.84375q0 -0.90625 -1.328125 -0.90625l-0.15625 0l0.171875 -0.796875l3.515625 0l-0.515625 2.390625l0.1875 0q1.546875 -2.5625 3.46875 -2.5625q2.03125 0 2.03125 2.109375q0 0.609375 -0.34375 2.09375l-0.5 2.234375q-0.25 1.140625 -0.25 2.0q0 0.90625 0.671875 0.90625q0.546875 0 1.21875 -0.4375l0.34375 0.5625q-1.25 1.078125 -2.328125 1.078125q-0.78125 0 -1.25 -0.5q-0.46875 -0.515625 -0.46875 -1.390625q0 -0.875 0.359375 -2.578125l0.4375 -1.96875q0.28125 -1.140625 0.28125 -1.765625q0 -1.125 -0.875 -1.125q-1.0625 0 -2.171875 1.4375q-1.109375 1.421875 -1.421875 2.84375l-1.015625 4.859375zm16.177353 -2.375q0.203125 0.125 0.203125 0.46875q0 0.765625 -0.90625 1.4375q-0.890625 0.65625 -2.390625 0.65625q-1.65625 0 -2.6875 -1.046875q-1.015625 -1.046875 -1.015625 -2.875q0 -2.484375 1.609375 -4.5625q1.609375 -2.078125 4.046875 -2.078125q1.3125 0 2.046875 0.53125q0.734375 0.515625 0.734375 1.296875q0 0.5625 -0.46875 0.953125q-0.453125 0.375 -1.21875 0.375q0 -1.015625 -0.390625 -1.625q-0.390625 -0.625 -1.078125 -0.625q-1.328125 0 -2.3125 1.984375q-0.984375 1.984375 -0.984375 3.890625q0 2.578125 2.078125 2.578125q1.671875 0 2.734375 -1.359375zm9.082169 0q0.203125 0.125 0.203125 0.46875q0 0.765625 -0.90625 1.4375q-0.890625 0.65625 -2.390625 0.65625q-1.65625 0 -2.6875 -1.046875q-1.015625 -1.046875 -1.015625 -2.875q0 -2.484375 1.609375 -4.5625q1.609375 -2.078125 4.046875 -2.078125q1.21875 0 1.875 0.578125q0.671875 0.578125 0.671875 1.609375q0 1.53125 -1.609375 2.671875q-1.59375 1.140625 -3.90625 1.140625l-0.328125 0q-0.171875 0 -0.34375 -0.015625q-0.03125 0.265625 -0.03125 0.796875q0 2.578125 2.078125 2.578125q1.625 0 2.734375 -1.359375zm-4.609375 -2.890625l0.1875 0q1.6875 0 2.765625 -0.8125q1.09375 -0.8125 1.09375 -2.109375q0 -1.28125 -1.09375 -1.28125q-0.921875 0 -1.71875 1.15625q-0.796875 1.15625 -1.234375 3.046875z" fill-rule="nonzero"></path><path fill="#000000" fill-opacity="0.0" d="m363.12073 0l149.10236 0l0 40.283466l-149.10236 0z" fill-rule="nonzero"></path><path fill="#000000" d="m379.80823 26.919998l0.15625 -0.796875l0.25 0q0.90625 0 1.3125 -0.328125q0.40625 -0.34375 0.546875 -1.03125l0.9375 -4.453125l-6.171875 0l-0.953125 4.515625q-0.078125 0.40625 -0.078125 0.53125q0 0.765625 1.375 0.765625l0.234375 0l-0.171875 0.796875l-5.53125 0l0.15625 -0.796875l0.25 0q0.921875 0 1.3125 -0.34375q0.40625 -0.359375 0.546875 -1.015625l1.984375 -9.3125q0.078125 -0.359375 0.078125 -0.53125q0 -0.765625 -1.375 -0.765625l-0.25 0l0.171875 -0.796875l5.53125 0l-0.171875 0.796875l-0.25 0q-0.90625 0 -1.3125 0.34375q-0.390625 0.34375 -0.53125 1.015625l-0.8125 3.84375l6.171875 0l0.84375 -3.90625q0.0625 -0.359375 0.0625 -0.53125q0 -0.765625 -1.359375 -0.765625l-0.25 0l0.171875 -0.796875l5.53125 0l-0.171875 0.796875l-0.25 0q-0.90625 0 -1.3125 0.359375q-0.390625 0.34375 -0.53125 1.0l-1.96875 9.3125q-0.078125 0.359375 -0.078125 0.53125q0 0.765625 1.359375 0.765625l0.25 0l-0.171875 0.796875l-5.53125 0zm11.371948 -12.09375q-1.078125 0 -1.078125 -1.03125q0 -0.609375 0.3125 -0.96875q0.3125 -0.375 0.828125 -0.375q1.078125 0 1.078125 1.046875q0 0.65625 -0.328125 1.0q-0.3125 0.328125 -0.8125 0.328125zm-3.09375 2.703125l0.171875 -0.796875l3.40625 0l-1.296875 6.109375q-0.28125 1.359375 -0.28125 2.109375q0 0.953125 0.625 0.953125q0.546875 0 1.375 -0.484375l0.34375 0.546875q-1.328125 1.140625 -2.578125 1.140625q-0.703125 0 -1.140625 -0.5q-0.4375 -0.515625 -0.4375 -1.296875q0 -0.859375 0.4375 -3.0l0.734375 -3.484375q0.0625 -0.296875 0.0625 -0.5q0 -0.796875 -1.171875 -0.796875l-0.25 0zm12.862732 -0.375q0.90625 -1.34375 2.046875 -1.34375q0.953125 0 0.953125 0.859375q0 1.1875 -1.109375 1.1875q0 -0.6875 -0.53125 -0.6875q-0.375 0 -0.9375 0.4375q0.40625 0.59375 0.40625 1.46875q0 1.59375 -1.203125 2.921875q-1.1875 1.328125 -3.140625 1.328125q-0.4375 0 -0.609375 -0.03125q-1.34375 0.546875 -1.34375 1.1875q0 0.484375 0.96875 0.578125l1.8125 0.1875q2.953125 0.3125 2.953125 2.484375q0 1.78125 -1.34375 2.765625q-1.328125 0.984375 -3.796875 0.984375q-4.15625 0 -4.15625 -2.46875q0 -1.03125 0.828125 -1.75q0.84375 -0.71875 2.28125 -1.0q-0.921875 -0.4375 -0.921875 -1.296875q0 -0.59375 0.375 -1.0q0.375 -0.40625 1.4375 -0.9375q-1.328125 -0.625 -1.328125 -2.25q0 -1.609375 1.203125 -2.921875q1.21875 -1.3125 3.203125 -1.3125q1.203125 0 1.953125 0.609375zm-3.296875 5.265625q1.078125 0 1.734375 -1.078125q0.671875 -1.078125 0.671875 -2.359375q0 -1.5625 -1.3125 -1.5625q-1.109375 0 -1.765625 1.09375q-0.65625 1.09375 -0.65625 2.34375q0 1.5625 1.328125 1.5625zm0.140625 4.4375l-1.84375 -0.171875q-0.140625 0 -0.828125 0.203125q-0.671875 0.1875 -1.171875 0.703125q-0.484375 0.53125 -0.484375 1.296875q0 1.65625 2.671875 1.65625q1.671875 0 2.546875 -0.625q0.890625 -0.609375 0.890625 -1.65625q0 -1.234375 -1.78125 -1.40625zm9.547577 -7.734375q1.578125 -2.5625 3.515625 -2.5625q2.03125 0 2.03125 2.109375q0 0.609375 -0.34375 2.09375l-0.5 2.234375q-0.25 1.140625 -0.25 2.0q0 0.90625 0.671875 0.90625q0.546875 0 1.21875 -0.4375l0.34375 0.5625q-1.25 1.078125 -2.328125 1.078125q-0.78125 0 -1.25 -0.5q-0.46875 -0.515625 -0.46875 -1.390625q0 -0.875 0.359375 -2.578125l0.4375 -1.96875q0.28125 -1.140625 0.28125 -1.765625q0 -1.125 -0.875 -1.125q-1.0625 0 -2.1875 1.453125q-1.109375 1.4375 -1.40625 2.828125l-1.015625 4.859375l-1.78125 0l2.46875 -11.75q0.1875 -0.828125 0.1875 -1.0q0 -0.890625 -1.34375 -0.890625l-0.140625 0l0.15625 -0.796875l3.5 0l-0.734375 3.484375q-0.34375 1.5625 -0.75 3.15625l0.203125 0zm17.570496 5.9375q0.71875 -1.640625 1.546875 -3.125l3.375 -6.03125q0.359375 -0.65625 0.359375 -1.078125q0 -0.671875 -1.046875 -0.671875l-0.4375 0l0.140625 -0.796875l4.703125 0l-0.1875 0.796875l-0.359375 0q-0.640625 0 -0.96875 0.328125q-0.3125 0.328125 -0.765625 1.140625l-6.328125 11.296875l-1.390625 0l-1.625 -11.765625q-0.078125 -0.5625 -0.3125 -0.78125q-0.234375 -0.21875 -0.8125 -0.21875l-0.25 0l0.15625 -0.796875l5.171875 0l-0.140625 0.796875l-0.4375 0q-0.609375 0 -1.0 0.265625q-0.375 0.25 -0.375 0.703125q0 0.328125 0.046875 0.640625l0.75 6.171875q0.1875 1.59375 0.1875 3.125zm13.60495 -1.0l-0.125 0q-1.359375 3.046875 -3.546875 3.046875q-1.15625 0 -1.8125 -0.90625q-0.640625 -0.921875 -0.640625 -2.5625q0 -2.625 1.625 -4.859375q1.640625 -2.234375 4.03125 -2.234375q1.296875 0 2.234375 0.6875l0.828125 -0.484375l0.625 0l-1.3125 6.09375q-0.265625 1.296875 -0.265625 2.109375q0 0.953125 0.609375 0.953125q0.546875 0 1.375 -0.484375l0.34375 0.546875q-1.359375 1.140625 -2.671875 1.140625q-1.484375 0 -1.484375 -1.578125q0 -0.609375 0.1875 -1.46875zm1.078125 -5.96875q-0.4375 -0.6875 -1.4375 -0.6875q-1.625 0 -2.734375 2.0625q-1.09375 2.0625 -1.09375 4.25q0 2.1875 1.203125 2.1875q0.953125 0 1.984375 -1.390625q1.046875 -1.40625 1.375 -3.0625l0.703125 -3.359375zm10.194489 1.21875q0 -1.515625 -0.75 -1.515625q-0.890625 0 -1.875 1.734375q-0.984375 1.734375 -1.453125 3.9375l-0.71875 3.453125l-1.78125 0l1.609375 -7.640625q0.109375 -0.53125 0.109375 -0.84375q0 -0.90625 -1.515625 -0.90625l-0.15625 0l0.171875 -0.796875l3.359375 0l-0.390625 2.734375l0.1875 0q0.765625 -1.6875 1.5 -2.296875q0.75 -0.625 1.734375 -0.625q1.546875 0 1.546875 1.3125q0 1.453125 -1.578125 1.453125zm5.586273 -4.484375q-1.078125 0 -1.078125 -1.03125q0 -0.609375 0.3125 -0.96875q0.3125 -0.375 0.828125 -0.375q1.078125 0 1.078125 1.046875q0 0.65625 -0.328125 1.0q-0.3125 0.328125 -0.8125 0.328125zm-3.09375 2.703125l0.171875 -0.796875l3.40625 0l-1.296875 6.109375q-0.28125 1.359375 -0.28125 2.109375q0 0.953125 0.625 0.953125q0.546875 0 1.375 -0.484375l0.34375 0.546875q-1.328125 1.140625 -2.578125 1.140625q-0.703125 0 -1.140625 -0.5q-0.4375 -0.515625 -0.4375 -1.296875q0 -0.859375 0.4375 -3.0l0.734375 -3.484375q0.0625 -0.296875 0.0625 -0.5q0 -0.796875 -1.171875 -0.796875l-0.25 0zm11.440826 6.53125l-0.125 0q-1.359375 3.046875 -3.546875 3.046875q-1.15625 0 -1.8125 -0.90625q-0.640625 -0.921875 -0.640625 -2.5625q0 -2.625 1.625 -4.859375q1.640625 -2.234375 4.03125 -2.234375q1.296875 0 2.234375 0.6875l0.828125 -0.484375l0.625 0l-1.3125 6.09375q-0.265625 1.296875 -0.265625 2.109375q0 0.953125 0.609375 0.953125q0.546875 0 1.375 -0.484375l0.34375 0.546875q-1.359375 1.140625 -2.671875 1.140625q-1.484375 0 -1.484375 -1.578125q0 -0.609375 0.1875 -1.46875zm1.078125 -5.96875q-0.4375 -0.6875 -1.4375 -0.6875q-1.625 0 -2.734375 2.0625q-1.09375 2.0625 -1.09375 4.25q0 2.1875 1.203125 2.1875q0.953125 0 1.984375 -1.390625q1.046875 -1.40625 1.375 -3.0625l0.703125 -3.359375zm5.3976135 8.828125l-1.78125 0l1.609375 -7.640625q0.109375 -0.53125 0.109375 -0.84375q0 -0.90625 -1.328125 -0.90625l-0.15625 0l0.171875 -0.796875l3.515625 0l-0.515625 2.390625l0.1875 0q1.546875 -2.5625 3.46875 -2.5625q2.03125 0 2.03125 2.109375q0 0.609375 -0.34375 2.09375l-0.5 2.234375q-0.25 1.140625 -0.25 2.0q0 0.90625 0.671875 0.90625q0.546875 0 1.21875 -0.4375l0.34375 0.5625q-1.25 1.078125 -2.328125 1.078125q-0.78125 0 -1.25 -0.5q-0.46875 -0.515625 -0.46875 -1.390625q0 -0.875 0.359375 -2.578125l0.4375 -1.96875q0.28125 -1.140625 0.28125 -1.765625q0 -1.125 -0.875 -1.125q-1.0625 0 -2.171875 1.4375q-1.109375 1.421875 -1.421875 2.84375l-1.015625 4.859375zm16.177368 -2.375q0.203125 0.125 0.203125 0.46875q0 0.765625 -0.90625 1.4375q-0.890625 0.65625 -2.390625 0.65625q-1.65625 0 -2.6875 -1.046875q-1.015625 -1.046875 -1.015625 -2.875q0 -2.484375 1.609375 -4.5625q1.609375 -2.078125 4.046875 -2.078125q1.3125 0 2.046875 0.53125q0.734375 0.515625 0.734375 1.296875q0 0.5625 -0.46875 0.953125q-0.453125 0.375 -1.21875 0.375q0 -1.015625 -0.390625 -1.625q-0.390625 -0.625 -1.078125 -0.625q-1.328125 0 -2.3125 1.984375q-0.984375 1.984375 -0.984375 3.890625q0 2.578125 2.078125 2.578125q1.671875 0 2.734375 -1.359375zm9.082153 0q0.203125 0.125 0.203125 0.46875q0 0.765625 -0.90625 1.4375q-0.890625 0.65625 -2.390625 0.65625q-1.65625 0 -2.6875 -1.046875q-1.015625 -1.046875 -1.015625 -2.875q0 -2.484375 1.609375 -4.5625q1.609375 -2.078125 4.046875 -2.078125q1.21875 0 1.875 0.578125q0.671875 0.578125 0.671875 1.609375q0 1.53125 -1.609375 2.671875q-1.59375 1.140625 -3.90625 1.140625l-0.328125 0q-0.171875 0 -0.34375 -0.015625q-0.03125 0.265625 -0.03125 0.796875q0 2.578125 2.078125 2.578125q1.625 0 2.734375 -1.359375zm-4.609375 -2.890625l0.1875 0q1.6875 0 2.765625 -0.8125q1.09375 -0.8125 1.09375 -2.109375q0 -1.28125 -1.09375 -1.28125q-0.921875 0 -1.71875 1.15625q-0.796875 1.15625 -1.234375 3.046875z" fill-rule="nonzero"></path><path fill="#000000" fill-opacity="0.0" d="m0 198.7874l0 -149.10236l40.283466 0l0 149.10236z" fill-rule="nonzero"></path><path fill="#000000" d="m26.123123 164.35002l0 -0.25q0 -0.890625 -0.34375 -1.28125q-0.359375 -0.390625 -1.015625 -0.546875l-9.3125 -1.984375q-0.359375 -0.078125 -0.53125 -0.078125q-0.765625 0 -0.765625 1.375l0 0.25l-0.796875 -0.171875l0 -5.53125l0.796875 0.171875l0 0.25q0 0.890625 0.328125 1.28125q0.3125 0.390625 0.96875 0.53125l10.515625 2.25l0 -3.734375q0 -1.46875 -1.703125 -2.03125l-1.421875 -0.5l0 -0.984375l4.078125 0.984375l0 10.15625l-0.796875 -0.15625zm-9.578125 -18.311218q0 -1.6875 1.015625 -2.640625q1.015625 -0.96875 2.921875 -0.96875q2.53125 0 4.578125 1.546875q2.046875 1.546875 2.046875 4.0625q0 1.71875 -1.03125 2.6875q-1.046875 0.96875 -2.890625 0.96875q-2.5625 0 -4.59375 -1.5625q-2.046875 -1.5625 -2.046875 -4.09375zm9.625 1.796875q0 -1.578125 -1.859375 -2.5q-1.859375 -0.9375 -4.109375 -0.9375q-2.65625 0 -2.65625 1.859375q0 1.546875 1.875 2.5q1.859375 0.953125 4.140625 0.953125q2.609375 0 2.609375 -1.875zm0.921875 -8.322144l-8.1875 0.140625q-0.671875 0 -1.015625 0.265625q-0.359375 0.25 -0.359375 0.984375l0 0.1875l-0.796875 -0.265625l0 -2.859375q4.015625 -0.046875 8.671875 -0.046875l0 -0.078125q-4.359375 -2.46875 -8.5 -4.234375l-0.0625 -1.578125q5.0 -0.40625 8.6875 -0.40625l0 -0.125q-1.90625 -1.546875 -3.765625 -2.5625q-1.859375 -1.0156326 -2.953125 -1.0156326q-0.875 0 -1.140625 0.8281326q-1.125 -0.171875 -1.125 -1.1250076q0 -1.0 1.421875 -1.0q2.734375 0 8.9375 4.7656326l0.203125 1.875l-8.21875 0.28125q2.046875 0.859375 7.96875 4.015625l0.234375 1.953125zm-0.96875 -17.591637l0 -0.25q0 -1.578125 -1.359375 -1.859375l-9.3125 -1.984375q-0.359375 -0.078125 -0.53125 -0.078125q-0.765625 0 -0.765625 1.375l0 0.25l-0.796875 -0.171875l0 -4.921875q0 -4.453125 2.84375 -4.453125q2.8125 0 3.53125 3.109375l0.078125 0.015625q0.46875 -2.328125 2.78125 -2.328125q2.078125 0 3.203125 1.40625q1.125 1.40625 1.125 4.078125l0 5.96875l-0.796875 -0.15625zm-6.78125 -5.171875l0 -1.46875q0 -3.375 -2.890625 -3.375q-2.15625 0 -2.15625 2.625l0 1.140625l5.046875 1.078125zm6.625 1.40625l0 -1.84375q0 -3.625 -3.515625 -3.625q-2.171875 0 -2.171875 2.65625l0 1.59375l5.6875 1.21875zm-11.140625 -12.947617q0 1.078125 -1.03125 1.078125q-0.609375 0 -0.96875 -0.3125q-0.375 -0.3125 -0.375 -0.828125q0 -1.078125 1.046875 -1.078125q0.65625 0 1.0 0.328125q0.328125 0.3125 0.328125 0.8125zm2.703125 3.09375l-0.796875 -0.171875l0 -3.40625l6.109375 1.296875q1.359375 0.28125 2.109375 0.28125q0.953125 0 0.953125 -0.625q0 -0.546875 -0.484375 -1.375l0.546875 -0.34375q1.140625 1.328125 1.140625 2.578125q0 0.703125 -0.5 1.140625q-0.515625 0.4375 -1.296875 0.4375q-0.859375 0 -3.0 -0.4375l-3.484375 -0.734375q-0.296875 -0.0625 -0.5 -0.0625q-0.796875 0 -0.796875 1.171875l0 0.25zm6.53125 -11.440842l0 0.125q3.046875 1.359375 3.046875 3.546875q0 1.15625 -0.90625 1.8125q-0.921875 0.640625 -2.5625 0.640625q-2.625 0 -4.859375 -1.625q-2.234375 -1.640625 -2.234375 -4.03125q0 -1.296875 0.6875 -2.234375l-0.484375 -0.828125l0 -0.625l6.09375 1.3125q1.296875 0.265625 2.109375 0.265625q0.953125 0 0.953125 -0.609375q0 -0.546875 -0.484375 -1.375l0.546875 -0.34375q1.140625 1.359375 1.140625 2.671875q0 1.484375 -1.578125 1.484375q-0.609375 0 -1.46875 -0.1875zm-5.96875 -1.078125q-0.6875 0.4375 -0.6875 1.4375q0 1.625 2.0625 2.734375q2.0625 1.09375 4.25 1.09375q2.1875 0 2.1875 -1.203125q0 -0.953125 -1.390625 -1.984375q-1.40625 -1.046875 -3.0625 -1.375l-3.359375 -0.703125zm1.453125 -9.663239q-0.953125 0 -1.53125 0.453125q-0.578125 0.453125 -0.578125 1.25q0 0.859375 0.46875 1.359375q0.453125 0.484375 1.171875 0.484375q0.625 0 1.078125 -0.46875q0.4375 -0.46875 0.875 -1.46875q1.015625 -2.28125 2.953125 -2.28125q1.390625 0 2.265625 1.078125q0.859375 1.078125 0.859375 2.859375q0 1.4375 -0.578125 2.296875q-0.578125 0.84375 -1.5625 0.84375q-0.609375 0 -0.921875 -0.34375q-0.328125 -0.34375 -0.328125 -0.859375q1.171875 0 1.828125 -0.5625q0.65625 -0.578125 0.65625 -1.609375q0 -2.046875 -1.765625 -2.046875q-0.671875 0 -1.140625 0.4375q-0.46875 0.4375 -0.953125 1.484375q-0.65625 1.359375 -1.34375 1.828125q-0.6875 0.46875 -1.609375 0.46875q-1.234375 0 -2.03125 -1.015625q-0.796875 -1.015625 -0.796875 -2.640625q0 -1.40625 0.53125 -2.1875q0.515625 -0.78125 1.28125 -0.78125q1.171875 0 1.171875 1.421875z" fill-rule="nonzero"></path><path fill="#000000" fill-opacity="0.0" d="m12.6640415 455.11548l0 -149.10236l40.28347 0l0 149.10236z" fill-rule="nonzero"></path><path fill="#000000" d="m39.58404 414.97635l-0.796875 -0.15625l0 -0.25q0 -0.90625 -0.328125 -1.3125q-0.34375 -0.40625 -1.03125 -0.546875l-4.453125 -0.9375l0 6.171875l4.515625 0.953125q0.40625 0.078125 0.53125 0.078125q0.765625 0 0.765625 -1.375l0 -0.234375l0.796875 0.171875l0 5.53125l-0.796875 -0.15625l0 -0.25q0 -0.921875 -0.34375 -1.3125q-0.359375 -0.40625 -1.015625 -0.546875l-9.312502 -1.984375q-0.359375 -0.078125 -0.53125 -0.078125q-0.765625 0 -0.765625 1.375l0 0.25l-0.796875 -0.171875l0 -5.53125l0.796875 0.171875l0 0.25q0 0.90625 0.34375 1.3125q0.34375 0.390625 1.015625 0.53125l3.843752 0.8125l0 -6.171875l-3.906252 -0.84375q-0.359375 -0.0625 -0.53125 -0.0625q-0.765625 0 -0.765625 1.359375l0 0.25l-0.796875 -0.171875l0 -5.53125l0.796875 0.171875l0 0.25q0 0.90625 0.359375 1.3125q0.34375 0.390625 1.0 0.53125l9.312502 1.96875q0.359375 0.078125 0.53125 0.078125q0.765625 0 0.765625 -1.359375l0 -0.25l0.796875 0.171875l0 5.53125zm-12.093752 -11.371948q0 1.078125 -1.03125 1.078125q-0.609375 0 -0.96875 -0.3125q-0.375 -0.3125 -0.375 -0.828125q0 -1.078125 1.046875 -1.078125q0.65625 0 1.0 0.328125q0.328125 0.3125 0.328125 0.8125zm2.703125 3.09375l-0.796875 -0.171875l0 -3.40625l6.109377 1.296875q1.359375 0.28125 2.109375 0.28125q0.953125 0 0.953125 -0.625q0 -0.546875 -0.484375 -1.375l0.546875 -0.34375q1.140625 1.328125 1.140625 2.578125q0 0.703125 -0.5 1.140625q-0.515625 0.4375 -1.296875 0.4375q-0.859375 0 -3.0 -0.4375l-3.484377 -0.734375q-0.296875 -0.0625 -0.5 -0.0625q-0.796875 0 -0.796875 1.171875l0 0.25zm-0.375 -12.862732q-1.34375 -0.90625 -1.34375 -2.046875q0 -0.953125 0.859375 -0.953125q1.1875 0 1.1875 1.109375q-0.6875 0 -0.6875 0.53125q0 0.375 0.4375 0.9375q0.59375 -0.40625 1.46875 -0.40625q1.5937519 0 2.921877 1.203125q1.328125 1.1875 1.328125 3.140625q0 0.4375 -0.03125 0.609375q0.546875 1.34375 1.1875 1.34375q0.484375 0 0.578125 -0.96875l0.1875 -1.8125q0.3125 -2.953125 2.484375 -2.953125q1.78125 0 2.765625 1.34375q0.984375 1.328125 0.984375 3.796875q0 4.15625 -2.46875 4.15625q-1.03125 0 -1.75 -0.828125q-0.71875 -0.84375 -1.0 -2.28125q-0.4375 0.921875 -1.296875 0.921875q-0.59375 0 -1.0 -0.375q-0.40625 -0.375 -0.9375 -1.4375q-0.625 1.328125 -2.25 1.328125q-1.6093769 0 -2.921877 -1.203125q-1.3125 -1.21875 -1.3125 -3.203125q0 -1.203125 0.609375 -1.953125zm5.265627 3.296875q0 -1.078125 -1.078125 -1.734375q-1.078125 -0.671875 -2.359377 -0.671875q-1.5625 0 -1.5625 1.3125q0 1.109375 1.09375 1.765625q1.0937519 0.65625 2.343752 0.65625q1.5625 0 1.5625 -1.328125zm4.4375 -0.140625l-0.171875 1.84375q0 0.140625 0.203125 0.828125q0.1875 0.671875 0.703125 1.171875q0.53125 0.484375 1.296875 0.484375q1.65625 0 1.65625 -2.671875q0 -1.671875 -0.625 -2.546875q-0.609375 -0.890625 -1.65625 -0.890625q-1.234375 0 -1.40625 1.78125zm-7.734377 -9.547577q-2.5625 -1.578125 -2.5625 -3.515625q0 -2.03125 2.109375 -2.03125q0.609375 0 2.093752 0.34375l2.234375 0.5q1.140625 0.25 2.0 0.25q0.90625 0 0.90625 -0.671875q0 -0.546875 -0.4375 -1.21875l0.5625 -0.34375q1.078125 1.25 1.078125 2.328125q0 0.78125 -0.5 1.25q-0.515625 0.46875 -1.390625 0.46875q-0.875 0 -2.578125 -0.359375l-1.96875 -0.4375q-1.140625 -0.28125 -1.7656269 -0.28125q-1.125 0 -1.125 0.875q0 1.0625 1.453125 2.1875q1.4375019 1.109375 2.828127 1.40625l4.859375 1.015625l0 1.78125l-11.750002 -2.46875q-0.828125 -0.1875 -1.0 -0.1875q-0.890625 0 -0.890625 1.34375l0 0.140625l-0.796875 -0.15625l0 -3.5l3.484375 0.734375q1.5625 0.34375 3.15625 0.75l0 -0.203125zm7.000002 -11.398621l0 -0.25q0 -1.578125 -1.359375 -1.859375l-9.312502 -1.984375q-0.359375 -0.078125 -0.53125 -0.078125q-0.765625 0 -0.765625 1.375l0 0.25l-0.796875 -0.171875l0 -4.921875q0 -4.453125 2.84375 -4.453125q2.8125 0 3.531252 3.109375l0.078125 0.015625q0.46875 -2.328125 2.78125 -2.328125q2.078125 0 3.203125 1.40625q1.125 1.40625 1.125 4.078125l0 5.96875l-0.796875 -0.15625zm-6.78125 -5.171875l0 -1.46875q0 -3.375 -2.890627 -3.375q-2.15625 0 -2.15625 2.625l0 1.140625l5.046877 1.078125zm6.625 1.40625l0 -1.84375q0 -3.625 -3.515625 -3.625q-2.171875 0 -2.171875 2.65625l0 1.59375l5.6875 1.21875zm-11.140627 -12.947601q0 1.078125 -1.03125 1.078125q-0.609375 0 -0.96875 -0.3125q-0.375 -0.3125 -0.375 -0.828125q0 -1.078125 1.046875 -1.078125q0.65625 0 1.0 0.328125q0.328125 0.3125 0.328125 0.8125zm2.703125 3.09375l-0.796875 -0.171875l0 -3.40625l6.109377 1.296875q1.359375 0.28125 2.109375 0.28125q0.953125 0 0.953125 -0.625q0 -0.546875 -0.484375 -1.375l0.546875 -0.34375q1.140625 1.328125 1.140625 2.578125q0 0.703125 -0.5 1.140625q-0.515625 0.4375 -1.296875 0.4375q-0.859375 0 -3.0 -0.4375l-3.484377 -0.734375q-0.296875 -0.0625 -0.5 -0.0625q-0.796875 0 -0.796875 1.171875l0 0.25zm6.531252 -11.440857l0 0.125q3.046875 1.359375 3.046875 3.546875q0 1.15625 -0.90625 1.8125q-0.921875 0.640625 -2.5625 0.640625q-2.625 0 -4.859377 -1.625q-2.234375 -1.640625 -2.234375 -4.03125q0 -1.296875 0.6875 -2.234375l-0.484375 -0.828125l0 -0.625l6.093752 1.3125q1.296875 0.265625 2.109375 0.265625q0.953125 0 0.953125 -0.609375q0 -0.546875 -0.484375 -1.375l0.546875 -0.34375q1.140625 1.359375 1.140625 2.671875q0 1.484375 -1.578125 1.484375q-0.609375 0 -1.46875 -0.1875zm-5.968752 -1.078125q-0.6875 0.4375 -0.6875 1.4375q0 1.625 2.062502 2.734375q2.0625 1.09375 4.25 1.09375q2.1875 0 2.1875 -1.203125q0 -0.953125 -1.390625 -1.984375q-1.40625 -1.046875 -3.0625 -1.375l-3.359377 -0.703125zm1.4531269 -9.663239q-0.9531269 0 -1.5312519 0.453125q-0.578125 0.453125 -0.578125 1.25q0 0.859375 0.46875 1.359375q0.453125 0.484375 1.171875 0.484375q0.6250019 0 1.0781269 -0.46875q0.4375 -0.46875 0.875 -1.46875q1.015625 -2.28125 2.953125 -2.28125q1.390625 0 2.265625 1.078125q0.859375 1.078125 0.859375 2.859375q0 1.4375 -0.578125 2.296875q-0.578125 0.84375 -1.5625 0.84375q-0.609375 0 -0.921875 -0.34375q-0.328125 -0.34375 -0.328125 -0.859375q1.171875 0 1.828125 -0.5625q0.65625 -0.578125 0.65625 -1.609375q0 -2.046875 -1.765625 -2.046875q-0.671875 0 -1.140625 0.4375q-0.46875 0.4375 -0.953125 1.484375q-0.65625 1.359375 -1.34375 1.828125q-0.6875 0.46875 -1.609375 0.46875q-1.2343769 0 -2.031252 -1.015625q-0.796875 -1.015625 -0.796875 -2.640625q0 -1.40625 0.53125 -2.1875q0.515625 -0.78125 1.28125 -0.78125q1.1718769 0 1.1718769 1.421875z" fill-rule="nonzero"></path><path fill="#cc0000" d="m101.2126 326.6378l0 0c0 -2.226532 1.8049622 -4.031494 4.031494 -4.031494l0 0c1.0692215 0 2.0946426 0.42474365 2.8507004 1.1808167c0.7560501 0.7560425 1.1807938 1.7814636 1.1807938 2.8506775l0 0c0 2.226532 -1.8049622 4.031494 -4.031494 4.031494l0 0c-2.226532 0 -4.031494 -1.8049622 -4.031494 -4.031494z" fill-rule="nonzero"></path><path stroke="#000000" stroke-width="1.0" stroke-linejoin="round" stroke-linecap="butt" d="m101.2126 326.6378l0 0c0 -2.226532 1.8049622 -4.031494 4.031494 -4.031494l0 0c1.0692215 0 2.0946426 0.42474365 2.8507004 1.1808167c0.7560501 0.7560425 1.1807938 1.7814636 1.1807938 2.8506775l0 0c0 2.226532 -1.8049622 4.031494 -4.031494 4.031494l0 0c-2.226532 0 -4.031494 -1.8049622 -4.031494 -4.031494z" fill-rule="nonzero"></path><path fill="#cc0000" d="m109.2126 326.6378l0 0c0 -2.226532 1.8049622 -4.031494 4.031494 -4.031494l0 0c1.0692215 0 2.0946426 0.42474365 2.8507004 1.1808167c0.7560501 0.7560425 1.1807938 1.7814636 1.1807938 2.8506775l0 0c0 2.226532 -1.8049622 4.031494 -4.031494 4.031494l0 0c-2.226532 0 -4.031494 -1.8049622 -4.031494 -4.031494z" fill-rule="nonzero"></path><path stroke="#000000" stroke-width="1.0" stroke-linejoin="round" stroke-linecap="butt" d="m109.2126 326.6378l0 0c0 -2.226532 1.8049622 -4.031494 4.031494 -4.031494l0 0c1.0692215 0 2.0946426 0.42474365 2.8507004 1.1808167c0.7560501 0.7560425 1.1807938 1.7814636 1.1807938 2.8506775l0 0c0 2.226532 -1.8049622 4.031494 -4.031494 4.031494l0 0c-2.226532 0 -4.031494 -1.8049622 -4.031494 -4.031494z" fill-rule="nonzero"></path><path fill="#cc0000" d="m117.2126 326.6378l0 0c0 -2.226532 1.8049622 -4.031494 4.031494 -4.031494l0 0c1.0692215 0 2.0946426 0.42474365 2.8507004 1.1808167c0.7560501 0.7560425 1.1807938 1.7814636 1.1807938 2.8506775l0 0c0 2.226532 -1.8049622 4.031494 -4.031494 4.031494l0 0c-2.226532 0 -4.031494 -1.8049622 -4.031494 -4.031494z" fill-rule="nonzero"></path><path stroke="#000000" stroke-width="1.0" stroke-linejoin="round" stroke-linecap="butt" d="m117.2126 326.6378l0 0c0 -2.226532 1.8049622 -4.031494 4.031494 -4.031494l0 0c1.0692215 0 2.0946426 0.42474365 2.8507004 1.1808167c0.7560501 0.7560425 1.1807938 1.7814636 1.1807938 2.8506775l0 0c0 2.226532 -1.8049622 4.031494 -4.031494 4.031494l0 0c-2.226532 0 -4.031494 -1.8049622 -4.031494 -4.031494z" fill-rule="nonzero"></path><path fill="#cc0000" d="m101.2126 334.6378l0 0c0 -2.226532 1.8049622 -4.031494 4.031494 -4.031494l0 0c1.0692215 0 2.0946426 0.42474365 2.8507004 1.1808167c0.7560501 0.7560425 1.1807938 1.7814636 1.1807938 2.8506775l0 0c0 2.226532 -1.8049622 4.031494 -4.031494 4.031494l0 0c-2.226532 0 -4.031494 -1.8049622 -4.031494 -4.031494z" fill-rule="nonzero"></path><path stroke="#000000" stroke-width="1.0" stroke-linejoin="round" stroke-linecap="butt" d="m101.2126 334.6378l0 0c0 -2.226532 1.8049622 -4.031494 4.031494 -4.031494l0 0c1.0692215 0 2.0946426 0.42474365 2.8507004 1.1808167c0.7560501 0.7560425 1.1807938 1.7814636 1.1807938 2.8506775l0 0c0 2.226532 -1.8049622 4.031494 -4.031494 4.031494l0 0c-2.226532 0 -4.031494 -1.8049622 -4.031494 -4.031494z" fill-rule="nonzero"></path><path fill="#cc0000" d="m109.2126 334.6378l0 0c0 -2.226532 1.8049622 -4.031494 4.031494 -4.031494l0 0c1.0692215 0 2.0946426 0.42474365 2.8507004 1.1808167c0.7560501 0.7560425 1.1807938 1.7814636 1.1807938 2.8506775l0 0c0 2.226532 -1.8049622 4.031494 -4.031494 4.031494l0 0c-2.226532 0 -4.031494 -1.8049622 -4.031494 -4.031494z" fill-rule="nonzero"></path><path stroke="#000000" stroke-width="1.0" stroke-linejoin="round" stroke-linecap="butt" d="m109.2126 334.6378l0 0c0 -2.226532 1.8049622 -4.031494 4.031494 -4.031494l0 0c1.0692215 0 2.0946426 0.42474365 2.8507004 1.1808167c0.7560501 0.7560425 1.1807938 1.7814636 1.1807938 2.8506775l0 0c0 2.226532 -1.8049622 4.031494 -4.031494 4.031494l0 0c-2.226532 0 -4.031494 -1.8049622 -4.031494 -4.031494z" fill-rule="nonzero"></path><path fill="#cc0000" d="m117.2126 334.6378l0 0c0 -2.226532 1.8049622 -4.031494 4.031494 -4.031494l0 0c1.0692215 0 2.0946426 0.42474365 2.8507004 1.1808167c0.7560501 0.7560425 1.1807938 1.7814636 1.1807938 2.8506775l0 0c0 2.226532 -1.8049622 4.031494 -4.031494 4.031494l0 0c-2.226532 0 -4.031494 -1.8049622 -4.031494 -4.031494z" fill-rule="nonzero"></path><path stroke="#000000" stroke-width="1.0" stroke-linejoin="round" stroke-linecap="butt" d="m117.2126 334.6378l0 0c0 -2.226532 1.8049622 -4.031494 4.031494 -4.031494l0 0c1.0692215 0 2.0946426 0.42474365 2.8507004 1.1808167c0.7560501 0.7560425 1.1807938 1.7814636 1.1807938 2.8506775l0 0c0 2.226532 -1.8049622 4.031494 -4.031494 4.031494l0 0c-2.226532 0 -4.031494 -1.8049622 -4.031494 -4.031494z" fill-rule="nonzero"></path><path fill="#cc0000" d="m377.38846 334.6378l0 0c0 -2.226532 1.8049622 -4.031494 4.031494 -4.031494l0 0c1.0692139 0 2.094635 0.42474365 2.850708 1.1808167c0.7560425 0.7560425 1.1807861 1.7814636 1.1807861 2.8506775l0 0c0 2.226532 -1.8049622 4.031494 -4.031494 4.031494l0 0c-2.226532 0 -4.031494 -1.8049622 -4.031494 -4.031494z" fill-rule="nonzero"></path><path stroke="#000000" stroke-width="1.0" stroke-linejoin="round" stroke-linecap="butt" d="m377.38846 334.6378l0 0c0 -2.226532 1.8049622 -4.031494 4.031494 -4.031494l0 0c1.0692139 0 2.094635 0.42474365 2.850708 1.1808167c0.7560425 0.7560425 1.1807861 1.7814636 1.1807861 2.8506775l0 0c0 2.226532 -1.8049622 4.031494 -4.031494 4.031494l0 0c-2.226532 0 -4.031494 -1.8049622 -4.031494 -4.031494z" fill-rule="nonzero"></path><path fill="#cc0000" d="m417.38846 318.6378l0 0c0 -2.226532 1.8049622 -4.031494 4.031494 -4.031494l0 0c1.0692139 0 2.094635 0.42474365 2.850708 1.1808167c0.7560425 0.7560425 1.1807861 1.7814636 1.1807861 2.8506775l0 0c0 2.226532 -1.8049622 4.031494 -4.031494 4.031494l0 0c-2.226532 0 -4.031494 -1.8049622 -4.031494 -4.031494z" fill-rule="nonzero"></path><path stroke="#000000" stroke-width="1.0" stroke-linejoin="round" stroke-linecap="butt" d="m417.38846 318.6378l0 0c0 -2.226532 1.8049622 -4.031494 4.031494 -4.031494l0 0c1.0692139 0 2.094635 0.42474365 2.850708 1.1808167c0.7560425 0.7560425 1.1807861 1.7814636 1.1807861 2.8506775l0 0c0 2.226532 -1.8049622 4.031494 -4.031494 4.031494l0 0c-2.226532 0 -4.031494 -1.8049622 -4.031494 -4.031494z" fill-rule="nonzero"></path><path fill="#cc0000" d="m393.38846 310.6378l0 0c0 -2.226532 1.8049622 -4.031494 4.031494 -4.031494l0 0c1.0692139 0 2.094635 0.42474365 2.850708 1.1808167c0.7560425 0.7560425 1.1807861 1.7814636 1.1807861 2.8506775l0 0c0 2.226532 -1.8049622 4.031494 -4.031494 4.031494l0 0c-2.226532 0 -4.031494 -1.8049622 -4.031494 -4.031494z" fill-rule="nonzero"></path><path stroke="#000000" stroke-width="1.0" stroke-linejoin="round" stroke-linecap="butt" d="m393.38846 310.6378l0 0c0 -2.226532 1.8049622 -4.031494 4.031494 -4.031494l0 0c1.0692139 0 2.094635 0.42474365 2.850708 1.1808167c0.7560425 0.7560425 1.1807861 1.7814636 1.1807861 2.8506775l0 0c0 2.226532 -1.8049622 4.031494 -4.031494 4.031494l0 0c-2.226532 0 -4.031494 -1.8049622 -4.031494 -4.031494z" fill-rule="nonzero"></path><path fill="#cc0000" d="m473.38846 310.6378l0 0c0 -2.226532 1.8049622 -4.031494 4.031494 -4.031494l0 0c1.0692139 0 2.094635 0.42474365 2.850708 1.1808167c0.7560425 0.7560425 1.1807861 1.7814636 1.1807861 2.8506775l0 0c0 2.226532 -1.8049622 4.031494 -4.031494 4.031494l0 0c-2.226532 0 -4.031494 -1.8049622 -4.031494 -4.031494z" fill-rule="nonzero"></path><path stroke="#000000" stroke-width="1.0" stroke-linejoin="round" stroke-linecap="butt" d="m473.38846 310.6378l0 0c0 -2.226532 1.8049622 -4.031494 4.031494 -4.031494l0 0c1.0692139 0 2.094635 0.42474365 2.850708 1.1808167c0.7560425 0.7560425 1.1807861 1.7814636 1.1807861 2.8506775l0 0c0 2.226532 -1.8049622 4.031494 -4.031494 4.031494l0 0c-2.226532 0 -4.031494 -1.8049622 -4.031494 -4.031494z" fill-rule="nonzero"></path><path fill="#cc0000" d="m441.38846 302.6378l0 0c0 -2.226532 1.8049622 -4.031494 4.031494 -4.031494l0 0c1.0692139 0 2.094635 0.42474365 2.850708 1.1808167c0.7560425 0.7560425 1.1807861 1.7814636 1.1807861 2.8506775l0 0c0 2.226532 -1.8049622 4.031494 -4.031494 4.031494l0 0c-2.226532 0 -4.031494 -1.8049622 -4.031494 -4.031494z" fill-rule="nonzero"></path><path stroke="#000000" stroke-width="1.0" stroke-linejoin="round" stroke-linecap="butt" d="m441.38846 302.6378l0 0c0 -2.226532 1.8049622 -4.031494 4.031494 -4.031494l0 0c1.0692139 0 2.094635 0.42474365 2.850708 1.1808167c0.7560425 0.7560425 1.1807861 1.7814636 1.1807861 2.8506775l0 0c0 2.226532 -1.8049622 4.031494 -4.031494 4.031494l0 0c-2.226532 0 -4.031494 -1.8049622 -4.031494 -4.031494z" fill-rule="nonzero"></path><path fill="#cc0000" d="m401.38846 334.6378l0 0c0 -2.226532 1.8049622 -4.031494 4.031494 -4.031494l0 0c1.0692139 0 2.094635 0.42474365 2.850708 1.1808167c0.7560425 0.7560425 1.1807861 1.7814636 1.1807861 2.8506775l0 0c0 2.226532 -1.8049622 4.031494 -4.031494 4.031494l0 0c-2.226532 0 -4.031494 -1.8049622 -4.031494 -4.031494z" fill-rule="nonzero"></path><path stroke="#000000" stroke-width="1.0" stroke-linejoin="round" stroke-linecap="butt" d="m401.38846 334.6378l0 0c0 -2.226532 1.8049622 -4.031494 4.031494 -4.031494l0 0c1.0692139 0 2.094635 0.42474365 2.850708 1.1808167c0.7560425 0.7560425 1.1807861 1.7814636 1.1807861 2.8506775l0 0c0 2.226532 -1.8049622 4.031494 -4.031494 4.031494l0 0c-2.226532 0 -4.031494 -1.8049622 -4.031494 -4.031494z" fill-rule="nonzero"></path></g></svg>

