<?xml version="1.0" standalone="yes"?>

<svg version="1.1" viewBox="0.0 0.0 960.0 720.0" fill="none" stroke="none" stroke-linecap="square" stroke-miterlimit="10" xmlns="http://www.w3.org/2000/svg" xmlns:xlink="http://www.w3.org/1999/xlink"><clipPath id="p.0"><path d="m0 0l960.0 0l0 720.0l-960.0 0l0 -720.0z" clip-rule="nonzero"></path></clipPath><g clip-path="url(#p.0)"><path fill="#000000" fill-opacity="0.0" d="m0 0l960.0 0l0 720.0l-960.0 0z" fill-rule="nonzero"></path><path fill="#000000" fill-opacity="0.0" d="m187.31758 67.31759l0 491.71652" fill-rule="nonzero"></path><path stroke="#000000" stroke-width="1.0" stroke-linejoin="round" stroke-linecap="butt" d="m187.31758 70.744675l0 488.28943" fill-rule="evenodd"></path><path fill="#000000" stroke="#000000" stroke-width="1.0" stroke-linecap="butt" d="m187.31758 70.744675l1.124588 1.1245804l-1.124588 -3.0897675l-1.1245728 3.0897675z" fill-rule="evenodd"></path><path fill="#000000" fill-opacity="0.0" d="m188.77953 557.5617l608.7874 0" fill-rule="nonzero"></path><path stroke="#000000" stroke-width="1.0" stroke-linejoin="round" stroke-linecap="butt" d="m188.77953 557.5617l605.3603 0" fill-rule="evenodd"></path><path fill="#000000" stroke="#000000" stroke-width="1.0" stroke-linecap="butt" d="m794.13983 557.5617l-1.1245728 1.1245728l3.0897827 -1.1245728l-3.0897827 -1.1246338z" fill-rule="evenodd"></path><path fill="#000000" fill-opacity="0.0" d="m219.60892 118.53543c38.292664 41.934555 152.19467 251.38644 229.75592 251.60733c77.56125 0.22088623 196.34293 -208.56837 235.61154 -250.28204" fill-rule="nonzero"></path><path stroke="#000000" stroke-width="2.0" stroke-linejoin="round" stroke-linecap="butt" d="m224.0667 123.74195l0.3690796 0.45207214c0.34397888 0.42536163 0.6923065 0.8600464 1.0449219 1.303894c0.705246 0.8876724 1.4276428 1.8119507 2.1668243 2.7713547c2.9566498 3.8376617 6.18132 8.237717 9.646683 13.108154c6.93071 9.740906 14.824188 21.363434 23.461746 34.131744c17.275116 25.53659 37.52658 55.65634 59.00522 84.47255c42.957245 57.632416 90.82306 110.0506 129.60367 110.16104c38.78058 0.110443115 87.86636 -52.031677 132.1655 -109.41556c22.149597 -28.691956 43.10254 -58.69438 60.97235 -84.13089c8.934937 -12.718262 17.09906 -24.29506 24.256653 -33.995834c3.5787354 -4.850403 6.9058228 -9.231781 9.951843 -13.052338c0.76153564 -0.9551544 1.5054321 -1.8752441 2.2313843 -2.7588425c0.36291504 -0.4418106 0.7213745 -0.87448883 1.0752563 -1.2978592l0.41833496 -0.49591064" fill-rule="evenodd"></path><path fill="#000000" stroke="#000000" stroke-width="2.0" stroke-linecap="butt" d="m224.06671 123.74195l3.1712952 0.24568939l-5.7275085 -3.231247l2.3105164 6.1568527z" fill-rule="evenodd"></path><path fill="#000000" stroke="#000000" stroke-width="2.0" stroke-linecap="butt" d="m680.43616 124.99553l0.1951294 3.17482l2.4083862 -6.1192627l-5.7783203 3.1395645z" fill-rule="evenodd"></path><path fill="#000000" fill-opacity="0.0" d="m226.82939 145.26772c28.223999 51.054535 89.94969 249.01598 169.34401 306.3272c79.39429 57.31125 255.8515 31.283508 307.0218 37.54019" fill-rule="nonzero"></path><path stroke="#980000" stroke-width="2.0" stroke-linejoin="round" stroke-linecap="butt" d="m230.00644 151.34111l0.28286743 0.5649109c0.24075317 0.48509216 0.48353577 0.9784851 0.72828674 1.4799957c0.48954773 1.003067 0.98706055 2.038681 1.4925385 3.1057892c2.0218506 4.2684174 4.1707306 9.040482 6.442734 14.245987c4.543991 10.411041 9.580536 22.555847 15.07872 35.872787c10.996307 26.633926 23.83908 57.956436 38.280945 89.4745c28.883698 63.03607 64.16373 126.85422 103.86087 155.50986c39.697174 28.65564 103.66 36.4765 164.09491 37.915527c30.217407 0.71951294 59.552856 -0.1564331 84.532104 -0.821167c12.489624 -0.33239746 23.890137 -0.6119995 33.767395 -0.6129761c4.9385986 -4.5776367E-4 9.496399 0.06869507 13.619019 0.23571777c1.0307007 0.041809082 2.0341187 0.089660645 3.0095825 0.144104l1.1716919 0.070373535" fill-rule="evenodd"></path><path fill="#980000" stroke="#980000" stroke-width="2.0" stroke-linecap="butt" d="m230.00642 151.34111l3.035492 0.95043945l-4.8572845 -4.43309l0.8713684 6.5181427z" fill-rule="evenodd"></path><path fill="#980000" stroke="#980000" stroke-width="2.0" stroke-linecap="butt" d="m696.3681 488.52655l-2.4400024 2.0405884l6.3548584 -1.6916504l-5.9554443 -2.7889404z" fill-rule="evenodd"></path><path fill="#000000" fill-opacity="0.0" d="m684.9638 153.6614c-33.43225 51.164032 -126.06677 249.7543 -200.59357 306.9842c-74.526794 57.22989 -205.47256 30.329376 -246.5671 36.395264" fill-rule="nonzero"></path><path stroke="#ff9900" stroke-width="2.0" stroke-linejoin="round" stroke-linecap="butt" d="m681.3052 159.45746l-0.52563477 0.85739136c-0.29638672 0.4862671 -0.59625244 0.9808197 -0.8994751 1.4835663c-0.6063843 1.0054779 -1.2264404 2.0436554 -1.8597412 3.1134033c-2.533142 4.279007 -5.2786865 9.063416 -8.217773 14.282669c-5.878113 10.438553 -12.530212 22.616577 -19.80542 35.970062c-14.550354 26.707 -31.592957 58.115845 -49.919678 89.71423c-36.653503 63.196808 -78.44385 127.151855 -115.707214 155.76682c-37.263367 28.61499 -88.63153 36.197327 -135.82065 37.384125c-23.594574 0.5934448 -46.14435 -0.41201782 -65.36392 -1.1867065c-9.609772 -0.38735962 -18.387024 -0.71698 -26.04599 -0.7602539c-3.829483 -0.02166748 -7.37941 0.028320312 -10.614075 0.1784668c-0.40434265 0.018798828 -0.80374146 0.039093018 -1.1981506 0.061065674l-0.703537 0.04260254" fill-rule="evenodd"></path><path fill="#ff9900" stroke="#ff9900" stroke-width="2.0" stroke-linecap="butt" d="m681.3051 159.45746l0.701416 3.1025085l1.3966064 -6.426117l-5.2005005 4.0249786z" fill-rule="evenodd"></path><path fill="#ff9900" stroke="#ff9900" stroke-width="2.0" stroke-linecap="butt" d="m244.62392 496.36493l2.0164032 -2.460022l-5.9276123 2.8475952l6.371216 1.6288147z" fill-rule="evenodd"></path><path fill="#000000" fill-opacity="0.0" d="m629.2598 490.23358l71.71655 0l0 58.55121l-71.71655 0z" fill-rule="nonzero"></path><path fill="#000000" d="m640.2286 516.6692l-0.84375 0.546875l-0.609375 0l2.515625 -11.8124695q0.15625 -0.78125 0.15625 -1.0q0 -0.890625 -1.328125 -0.890625l-0.15625 0l0.1875 -0.796875l3.578125 0l-0.90625 4.265625q-0.1875 0.921875 -0.6875 2.515625l0.09375 0q1.40625 -2.71875 3.484375 -2.71875q1.125 0 1.765625 0.875q0.640625 0.875 0.640625 2.5625q0 2.6405945 -1.640625 4.8905945q-1.625 2.234375 -4.015625 2.234375q-1.359375 0 -2.234375 -0.671875zm0.671875 -0.859375q0.578125 0.671875 1.484375 0.671875q1.640625 0 2.71875 -2.09375q1.078125 -2.109375 1.078125 -4.1874695q0 -2.21875 -1.203125 -2.21875q-1.03125 0 -2.015625 1.4375q-0.984375 1.4375 -1.25 2.6249695l-0.8125 3.765625zm12.110046 -10.7499695q-1.078125 0 -1.078125 -1.03125q0 -0.609375 0.3125 -0.96875q0.3125 -0.375 0.828125 -0.375q1.078125 0 1.078125 1.046875q0 0.65625 -0.328125 1.0q-0.3125 0.328125 -0.8125 0.328125zm-3.09375 2.703125l0.171875 -0.796875l3.40625 0l-1.296875 6.1093445q-0.28125 1.359375 -0.28125 2.109375q0 0.953125 0.625 0.953125q0.546875 0 1.375 -0.484375l0.34375 0.546875q-1.328125 1.140625 -2.578125 1.140625q-0.703125 0 -1.140625 -0.5q-0.4375 -0.515625 -0.4375 -1.296875q0 -0.859375 0.4375 -3.0l0.734375 -3.4843445q0.0625 -0.296875 0.0625 -0.5q0 -0.796875 -1.171875 -0.796875l-0.25 0zm11.440857 6.5312195l-0.125 0q-1.359375 3.046875 -3.546875 3.046875q-1.15625 0 -1.8125 -0.90625q-0.640625 -0.921875 -0.640625 -2.5625q0 -2.6249695 1.625 -4.8593445q1.640625 -2.234375 4.03125 -2.234375q1.296875 0 2.234375 0.6875l0.828125 -0.484375l0.625 0l-1.3125 6.0937195q-0.265625 1.296875 -0.265625 2.109375q0 0.953125 0.609375 0.953125q0.546875 0 1.375 -0.484375l0.34375 0.546875q-1.359375 1.140625 -2.671875 1.140625q-1.484375 0 -1.484375 -1.578125q0 -0.609375 0.1875 -1.46875zm1.078125 -5.9687195q-0.4375 -0.6875 -1.4375 -0.6875q-1.625 0 -2.734375 2.0625q-1.09375 2.0625 -1.09375 4.2499695q0 2.1875 1.203125 2.1875q0.953125 0 1.984375 -1.390625q1.046875 -1.40625 1.375 -3.0624695l0.703125 -3.359375zm9.663208 1.453125q0 -0.953125 -0.453125 -1.53125q-0.453125 -0.578125 -1.25 -0.578125q-0.859375 0 -1.359375 0.46875q-0.484375 0.453125 -0.484375 1.171875q0 0.625 0.46875 1.078125q0.46875 0.4375 1.46875 0.875q2.28125 1.0155945 2.28125 2.9530945q0 1.390625 -1.078125 2.265625q-1.078125 0.859375 -2.859375 0.859375q-1.4375 0 -2.296875 -0.578125q-0.84375 -0.578125 -0.84375 -1.5625q0 -0.609375 0.34375 -0.921875q0.34375 -0.328125 0.859375 -0.328125q0 1.171875 0.5625 1.828125q0.578125 0.65625 1.609375 0.65625q2.046875 0 2.046875 -1.765625q0 -0.671875 -0.4375 -1.140625q-0.4375 -0.46875 -1.484375 -0.953125q-1.359375 -0.6562195 -1.828125 -1.3437195q-0.46875 -0.6875 -0.46875 -1.609375q0 -1.234375 1.015625 -2.03125q1.015625 -0.796875 2.640625 -0.796875q1.40625 0 2.1875 0.53125q0.78125 0.515625 0.78125 1.28125q0 1.171875 -1.421875 1.171875z" fill-rule="nonzero"></path><path fill="#000000" d="m673.67487 510.1536l0.25 -0.96875l2.8125 -2.546875q1.125 -1.015625 1.578125 -1.75q0.453125 -0.734375 0.453125 -1.609375q0 -0.5625 -0.296875 -0.890625q-0.296875 -0.328125 -0.8125 -0.328125q-1.390625 0 -1.703125 1.8125q-0.859375 0 -0.859375 -0.765625q0 -0.671875 0.71875 -1.15625q0.734375 -0.484375 1.90625 -0.484375q1.078125 0 1.671875 0.453125q0.59375 0.453125 0.59375 1.296875q0 0.71875 -0.515625 1.484375q-0.5 0.75 -1.984375 2.0625l-2.6875 2.421875l2.78125 0q0.390625 0 0.65625 -0.171875q0.28125 -0.171875 0.53125 -0.71875l0.078125 -0.1875l0.5 0l-0.46875 2.046875l-5.203125 0z" fill-rule="nonzero"></path><path fill="#000000" fill-opacity="0.0" d="m623.4042 311.60104l131.71655 0l0 58.551178l-131.71655 0z" fill-rule="nonzero"></path><path fill="#000000" d="m634.2323 330.14606q-0.15625 -1.015625 -1.3125 -1.015625l-0.1875 0l0.140625 -0.796875l2.859375 0l0.875 5.625q0.328125 2.15625 0.4375 3.359375l0.046875 0q1.421875 -1.359375 2.453125 -3.171875q1.046875 -1.828125 1.046875 -2.9375q0 -0.671875 -0.328125 -1.0625q-0.3125 -0.390625 -0.84375 -0.390625q0 -0.671875 0.359375 -1.09375q0.375 -0.421875 0.921875 -0.421875q1.296875 0 1.296875 1.765625q0 1.71875 -1.3125 4.046875q-1.3125 2.3125 -3.421875 4.453125l-1.703125 0.1875l-1.328125 -8.546875zm15.148071 5.515625l-0.125 0q-1.359375 3.046875 -3.546875 3.046875q-1.15625 0 -1.8125 -0.90625q-0.640625 -0.921875 -0.640625 -2.5625q0 -2.625 1.625 -4.859375q1.640625 -2.234375 4.03125 -2.234375q1.296875 0 2.234375 0.6875l0.828125 -0.484375l0.625 0l-1.3125 6.09375q-0.265625 1.296875 -0.265625 2.109375q0 0.953125 0.609375 0.953125q0.546875 0 1.375 -0.484375l0.34375 0.546875q-1.359375 1.140625 -2.671875 1.140625q-1.484375 0 -1.484375 -1.578125q0 -0.609375 0.1875 -1.46875zm1.078125 -5.96875q-0.4375 -0.6875 -1.4375 -0.6875q-1.625 0 -2.734375 2.0625q-1.09375 2.0625 -1.09375 4.25q0 2.1875 1.203125 2.1875q0.953125 0 1.984375 -1.390625q1.046875 -1.40625 1.375 -3.0625l0.703125 -3.359375zm10.194458 1.21875q0 -1.515625 -0.75 -1.515625q-0.890625 0 -1.875 1.734375q-0.984375 1.734375 -1.453125 3.9375l-0.71875 3.453125l-1.78125 0l1.609375 -7.640625q0.109375 -0.53125 0.109375 -0.84375q0 -0.90625 -1.515625 -0.90625l-0.15625 0l0.171875 -0.796875l3.359375 0l-0.390625 2.734375l0.1875 0q0.765625 -1.6875 1.5 -2.296875q0.75 -0.625 1.734375 -0.625q1.546875 0 1.546875 1.3125q0 1.453125 -1.578125 1.453125zm5.5863037 -4.484375q-1.078125 0 -1.078125 -1.03125q0 -0.609375 0.3125 -0.96875q0.3125 -0.375 0.828125 -0.375q1.078125 0 1.078125 1.046875q0 0.65625 -0.328125 1.0q-0.3125 0.328125 -0.8125 0.328125zm-3.09375 2.703125l0.171875 -0.796875l3.40625 0l-1.296875 6.109375q-0.28125 1.359375 -0.28125 2.109375q0 0.953125 0.625 0.953125q0.546875 0 1.375 -0.484375l0.34375 0.546875q-1.328125 1.140625 -2.578125 1.140625q-0.703125 0 -1.140625 -0.5q-0.4375 -0.515625 -0.4375 -1.296875q0 -0.859375 0.4375 -3.0l0.734375 -3.484375q0.0625 -0.296875 0.0625 -0.5q0 -0.796875 -1.171875 -0.796875l-0.25 0zm11.440857 6.53125l-0.125 0q-1.359375 3.046875 -3.546875 3.046875q-1.15625 0 -1.8125 -0.90625q-0.640625 -0.921875 -0.640625 -2.5625q0 -2.625 1.625 -4.859375q1.640625 -2.234375 4.03125 -2.234375q1.296875 0 2.234375 0.6875l0.828125 -0.484375l0.625 0l-1.3125 6.09375q-0.265625 1.296875 -0.265625 2.109375q0 0.953125 0.609375 0.953125q0.546875 0 1.375 -0.484375l0.34375 0.546875q-1.359375 1.140625 -2.671875 1.140625q-1.484375 0 -1.484375 -1.578125q0 -0.609375 0.1875 -1.46875zm1.078125 -5.96875q-0.4375 -0.6875 -1.4375 -0.6875q-1.625 0 -2.734375 2.0625q-1.09375 2.0625 -1.09375 4.25q0 2.1875 1.203125 2.1875q0.953125 0 1.984375 -1.390625q1.046875 -1.40625 1.375 -3.0625l0.703125 -3.359375zm5.397583 8.828125l-1.78125 0l1.609375 -7.640625q0.109375 -0.53125 0.109375 -0.84375q0 -0.90625 -1.328125 -0.90625l-0.15625 0l0.171875 -0.796875l3.515625 0l-0.515625 2.390625l0.1875 0q1.546875 -2.5625 3.46875 -2.5625q2.03125 0 2.03125 2.109375q0 0.609375 -0.34375 2.09375l-0.5 2.234375q-0.25 1.140625 -0.25 2.0q0 0.90625 0.671875 0.90625q0.546875 0 1.21875 -0.4375l0.34375 0.5625q-1.25 1.078125 -2.328125 1.078125q-0.78125 0 -1.25 -0.5q-0.46875 -0.515625 -0.46875 -1.390625q0 -0.875 0.359375 -2.578125l0.4375 -1.96875q0.28125 -1.140625 0.28125 -1.765625q0 -1.125 -0.875 -1.125q-1.0625 0 -2.171875 1.4375q-1.109375 1.421875 -1.421875 2.84375l-1.015625 4.859375zm16.177368 -2.375q0.203125 0.125 0.203125 0.46875q0 0.765625 -0.90625 1.4375q-0.890625 0.65625 -2.390625 0.65625q-1.65625 0 -2.6875 -1.046875q-1.015625 -1.046875 -1.015625 -2.875q0 -2.484375 1.609375 -4.5625q1.609375 -2.078125 4.046875 -2.078125q1.3125 0 2.046875 0.53125q0.734375 0.515625 0.734375 1.296875q0 0.5625 -0.46875 0.953125q-0.453125 0.375 -1.21875 0.375q0 -1.015625 -0.390625 -1.625q-0.390625 -0.625 -1.078125 -0.625q-1.328125 0 -2.3125 1.984375q-0.984375 1.984375 -0.984375 3.890625q0 2.578125 2.078125 2.578125q1.671875 0 2.734375 -1.359375zm9.082153 0q0.203125 0.125 0.203125 0.46875q0 0.765625 -0.90625 1.4375q-0.890625 0.65625 -2.390625 0.65625q-1.65625 0 -2.6875 -1.046875q-1.015625 -1.046875 -1.015625 -2.875q0 -2.484375 1.609375 -4.5625q1.609375 -2.078125 4.046875 -2.078125q1.21875 0 1.875 0.578125q0.671875 0.578125 0.671875 1.609375q0 1.53125 -1.609375 2.671875q-1.59375 1.140625 -3.90625 1.140625l-0.328125 0q-0.171875 0 -0.34375 -0.015625q-0.03125 0.265625 -0.03125 0.796875q0 2.578125 2.078125 2.578125q1.625 0 2.734375 -1.359375zm-4.609375 -2.890625l0.1875 0q1.6875 0 2.765625 -0.8125q1.09375 -0.8125 1.09375 -2.109375q0 -1.28125 -1.09375 -1.28125q-0.921875 0 -1.71875 1.15625q-0.796875 1.15625 -1.234375 3.046875z" fill-rule="nonzero"></path><path fill="#000000" fill-opacity="0.0" d="m560.3779 118.53543l131.71655 0l0 58.551178l-131.71655 0z" fill-rule="nonzero"></path><path fill="#000000" d="m575.0967 144.03355l0.328125 0.703125q-1.28125 0.90625 -2.5625 0.90625q-2.078125 0 -2.078125 -2.21875q0 -0.71875 0.1875 -1.59375l1.15625 -5.46875l-1.4375 0l0.171875 -0.765625q1.859375 0 2.90625 -2.671875l0.875 0l-0.5 2.34375l2.296875 0l-0.21875 1.09375l-2.3125 0l-1.140625 5.40625q-0.234375 1.09375 -0.234375 1.640625q0 1.03125 1.015625 1.03125q0.765625 0 1.546875 -0.40625zm7.6185913 -8.953125q1.6875 0 2.640625 1.015625q0.96875 1.015625 0.96875 2.921875q0 2.53125 -1.546875 4.578125q-1.546875 2.046875 -4.0625 2.046875q-1.71875 0 -2.6875 -1.03125q-0.96875 -1.046875 -0.96875 -2.890625q0 -2.5625 1.5625 -4.59375q1.5625 -2.046875 4.09375 -2.046875zm-1.796875 9.625q1.578125 0 2.5 -1.859375q0.9375 -1.859375 0.9375 -4.109375q0 -2.65625 -1.859375 -2.65625q-1.546875 0 -2.5 1.875q-0.953125 1.859375 -0.953125 4.140625q0 2.609375 1.875 2.609375zm11.759644 -0.671875l0.328125 0.703125q-1.28125 0.90625 -2.5625 0.90625q-2.078125 0 -2.078125 -2.21875q0 -0.71875 0.1875 -1.59375l1.15625 -5.46875l-1.4375 0l0.171875 -0.765625q1.859375 0 2.90625 -2.671875l0.875 0l-0.5 2.34375l2.296875 0l-0.21875 1.09375l-2.3125 0l-1.140625 5.40625q-0.234375 1.09375 -0.234375 1.640625q0 1.03125 1.015625 1.03125q0.765625 0 1.546875 -0.40625zm8.08728 -1.4375l-0.125 0q-1.359375 3.046875 -3.546875 3.046875q-1.15625 0 -1.8125 -0.90625q-0.640625 -0.921875 -0.640625 -2.5625q0 -2.625 1.625 -4.859375q1.640625 -2.234375 4.03125 -2.234375q1.296875 0 2.234375 0.6875l0.828125 -0.484375l0.625 0l-1.3125 6.09375q-0.265625 1.296875 -0.265625 2.109375q0 0.953125 0.609375 0.953125q0.546875 0 1.375 -0.484375l0.34375 0.546875q-1.359375 1.140625 -2.671875 1.140625q-1.484375 0 -1.484375 -1.578125q0 -0.609375 0.1875 -1.46875zm1.078125 -5.96875q-0.4375 -0.6875 -1.4375 -0.6875q-1.625 0 -2.734375 2.0625q-1.09375 2.0625 -1.09375 4.25q0 2.1875 1.203125 2.1875q0.953125 0 1.984375 -1.390625q1.046875 -1.40625 1.375 -3.0625l0.703125 -3.359375zm4.710144 -4.8125l0.171875 -0.796875l3.578125 0l-2.1875 10.359375q-0.296875 1.34375 -0.296875 2.109375q0 0.953125 0.640625 0.953125q0.546875 0 1.359375 -0.484375l0.34375 0.546875q-1.3125 1.140625 -2.578125 1.140625q-0.6875 0 -1.125 -0.5q-0.4375 -0.5 -0.4375 -1.296875q0 -0.90625 0.421875 -3.0l1.546875 -7.28125q0.125 -0.5625 0.125 -0.859375q0 -0.890625 -1.34375 -0.890625l-0.21875 0zm16.208984 11.265625q0.203125 0.125 0.203125 0.46875q0 0.765625 -0.90625 1.4375q-0.890625 0.65625 -2.390625 0.65625q-1.65625 0 -2.6875 -1.046875q-1.015625 -1.046875 -1.015625 -2.875q0 -2.484375 1.609375 -4.5625q1.609375 -2.078125 4.046875 -2.078125q1.21875 0 1.875 0.578125q0.671875 0.578125 0.671875 1.609375q0 1.53125 -1.609375 2.671875q-1.59375 1.140625 -3.90625 1.140625l-0.328125 0q-0.171875 0 -0.34375 -0.015625q-0.03125 0.265625 -0.03125 0.796875q0 2.578125 2.078125 2.578125q1.625 0 2.734375 -1.359375zm-4.609375 -2.890625l0.1875 0q1.6875 0 2.765625 -0.8125q1.09375 -0.8125 1.09375 -2.109375q0 -1.28125 -1.09375 -1.28125q-0.921875 0 -1.71875 1.15625q-0.796875 1.15625 -1.234375 3.046875zm13.606812 -2.34375q0 -1.515625 -0.75 -1.515625q-0.890625 0 -1.875 1.734375q-0.984375 1.734375 -1.453125 3.9375l-0.71875 3.453125l-1.78125 0l1.609375 -7.640625q0.109375 -0.53125 0.109375 -0.84375q0 -0.90625 -1.515625 -0.90625l-0.15625 0l0.171875 -0.796875l3.359375 0l-0.390625 2.734375l0.1875 0q0.765625 -1.6875 1.5 -2.296875q0.75 -0.625 1.734375 -0.625q1.546875 0 1.546875 1.3125q0 1.453125 -1.578125 1.453125zm8.726929 0q0 -1.515625 -0.75 -1.515625q-0.890625 0 -1.875 1.734375q-0.984375 1.734375 -1.453125 3.9375l-0.71875 3.453125l-1.78125 0l1.609375 -7.640625q0.109375 -0.53125 0.109375 -0.84375q0 -0.90625 -1.515625 -0.90625l-0.15625 0l0.171875 -0.796875l3.359375 0l-0.390625 2.734375l0.1875 0q0.765625 -1.6875 1.5 -2.296875q0.75 -0.625 1.734375 -0.625q1.546875 0 1.546875 1.3125q0 1.453125 -1.578125 1.453125zm7.7893677 -2.765625q1.6875 0 2.640625 1.015625q0.96875 1.015625 0.96875 2.921875q0 2.53125 -1.546875 4.578125q-1.546875 2.046875 -4.0625 2.046875q-1.71875 0 -2.6875 -1.03125q-0.96875 -1.046875 -0.96875 -2.890625q0 -2.5625 1.5625 -4.59375q1.5625 -2.046875 4.09375 -2.046875zm-1.796875 9.625q1.578125 0 2.5 -1.859375q0.9375 -1.859375 0.9375 -4.109375q0 -2.65625 -1.859375 -2.65625q-1.546875 0 -2.5 1.875q-0.953125 1.859375 -0.953125 4.140625q0 2.609375 1.875 2.609375zm13.447144 -6.859375q0 -1.515625 -0.75 -1.515625q-0.890625 0 -1.875 1.734375q-0.984375 1.734375 -1.453125 3.9375l-0.71875 3.453125l-1.78125 0l1.609375 -7.640625q0.109375 -0.53125 0.109375 -0.84375q0 -0.90625 -1.515625 -0.90625l-0.15625 0l0.171875 -0.796875l3.359375 0l-0.390625 2.734375l0.1875 0q0.765625 -1.6875 1.5 -2.296875q0.75 -0.625 1.734375 -0.625q1.546875 0 1.546875 1.3125q0 1.453125 -1.578125 1.453125z" fill-rule="nonzero"></path><path fill="#000000" fill-opacity="0.0" d="m396.6404 557.5617l181.35434 0l0 36.59839l-181.35434 0z" fill-rule="nonzero"></path><path fill="#000000" d="m416.5623 584.4817l0.171875 -0.796875l0.0625 0q0.796875 0 1.125 -0.296875q0.328125 -0.3125 0.484375 -0.90625l2.171875 -10.140625l-6.9375 12.140625l-1.015625 0l-1.859375 -12.140625l-2.125 10.046875q-0.078125 0.40625 -0.078125 0.53125q0 0.765625 1.375 0.765625l0.234375 0l-0.15625 0.796875l-4.75 0l0.15625 -0.796875l0.25 0q0.953125 0 1.3125 -0.328125q0.375 -0.34375 0.5 -0.9375l2.0 -9.40625q0.078125 -0.359375 0.078125 -0.53125q0 -0.765625 -1.375 -0.765625l-0.25 0l0.171875 -0.796875l4.3125 0l1.609375 10.828125l6.21875 -10.828125l4.25 0l-0.1875 0.796875l-0.234375 0q-0.90625 0 -1.3125 0.359375q-0.390625 0.34375 -0.53125 1.0l-1.984375 9.3125q-0.078125 0.359375 -0.078125 0.53125q0 0.765625 1.375 0.765625l0.25 0l-0.1875 0.796875l-5.046875 0zm13.046234 -10.375q1.6875 0 2.640625 1.015625q0.96875 1.015625 0.96875 2.921875q0 2.53125 -1.546875 4.578125q-1.546875 2.046875 -4.0625 2.046875q-1.71875 0 -2.6875 -1.03125q-0.96875 -1.046875 -0.96875 -2.890625q0 -2.5625 1.5625 -4.59375q1.5625 -2.046875 4.09375 -2.046875zm-1.796875 9.625q1.578125 0 2.5 -1.859375q0.9375 -1.859375 0.9375 -4.109375q0 -2.65625 -1.859375 -2.65625q-1.546875 0 -2.5 1.875q-0.953125 1.859375 -0.953125 4.140625q0 2.609375 1.875 2.609375zm12.978394 -2.109375l-0.125 0q-1.359375 3.046875 -3.546875 3.046875q-1.15625 0 -1.8125 -0.90625q-0.640625 -0.921875 -0.640625 -2.5625q0 -2.625 1.625 -4.859375q1.640625 -2.234375 4.03125 -2.234375q1.078125 0 1.875 0.453125q0.140625 -0.875 0.203125 -1.0625l0.1875 -0.90625q0.140625 -0.640625 0.140625 -0.859375q0 -0.890625 -1.328125 -0.890625l-0.15625 0l0.171875 -0.796875l3.5 0l-2.21875 10.359375q-0.265625 1.296875 -0.265625 2.109375q0 0.953125 0.609375 0.953125q0.546875 0 1.375 -0.484375l0.34375 0.546875q-1.359375 1.140625 -2.671875 1.140625q-1.484375 0 -1.484375 -1.578125q0 -0.609375 0.1875 -1.46875zm1.078125 -5.96875q-0.4375 -0.6875 -1.4375 -0.6875q-1.625 0 -2.734375 2.0625q-1.09375 2.0625 -1.09375 4.25q0 2.1875 1.203125 2.1875q0.953125 0 1.984375 -1.390625q1.046875 -1.40625 1.375 -3.0625l0.703125 -3.359375zm10.397614 6.453125q0.203125 0.125 0.203125 0.46875q0 0.765625 -0.90625 1.4375q-0.890625 0.65625 -2.390625 0.65625q-1.65625 0 -2.6875 -1.046875q-1.015625 -1.046875 -1.015625 -2.875q0 -2.484375 1.609375 -4.5625q1.609375 -2.078125 4.046875 -2.078125q1.21875 0 1.875 0.578125q0.671875 0.578125 0.671875 1.609375q0 1.53125 -1.609375 2.671875q-1.59375 1.140625 -3.90625 1.140625l-0.328125 0q-0.171875 0 -0.34375 -0.015625q-0.03125 0.265625 -0.03125 0.796875q0 2.578125 2.078125 2.578125q1.625 0 2.734375 -1.359375zm-4.609375 -2.890625l0.1875 0q1.6875 0 2.765625 -0.8125q1.09375 -0.8125 1.09375 -2.109375q0 -1.28125 -1.09375 -1.28125q-0.921875 0 -1.71875 1.15625q-0.796875 1.15625 -1.234375 3.046875zm8.122467 -8.375l0.171875 -0.796875l3.578125 0l-2.1875 10.359375q-0.296875 1.34375 -0.296875 2.109375q0 0.953125 0.640625 0.953125q0.546875 0 1.359375 -0.484375l0.34375 0.546875q-1.3125 1.140625 -2.578125 1.140625q-0.6875 0 -1.125 -0.5q-0.4375 -0.5 -0.4375 -1.296875q0 -0.90625 0.421875 -3.0l1.546875 -7.28125q0.125 -0.5625 0.125 -0.859375q0 -0.890625 -1.34375 -0.890625l-0.21875 0zm16.208954 11.265625q0.203125 0.125 0.203125 0.46875q0 0.765625 -0.90625 1.4375q-0.890625 0.65625 -2.390625 0.65625q-1.65625 0 -2.6875 -1.046875q-1.015625 -1.046875 -1.015625 -2.875q0 -2.484375 1.609375 -4.5625q1.609375 -2.078125 4.046875 -2.078125q1.3125 0 2.046875 0.53125q0.734375 0.515625 0.734375 1.296875q0 0.5625 -0.46875 0.953125q-0.453125 0.375 -1.21875 0.375q0 -1.015625 -0.390625 -1.625q-0.390625 -0.625 -1.078125 -0.625q-1.328125 0 -2.3125 1.984375q-0.984375 1.984375 -0.984375 3.890625q0 2.578125 2.078125 2.578125q1.671875 0 2.734375 -1.359375zm7.941559 -8.0q1.6875 0 2.640625 1.015625q0.96875 1.015625 0.96875 2.921875q0 2.53125 -1.546875 4.578125q-1.546875 2.046875 -4.0625 2.046875q-1.71875 0 -2.6875 -1.03125q-0.96875 -1.046875 -0.96875 -2.890625q0 -2.5625 1.5625 -4.59375q1.5625 -2.046875 4.09375 -2.046875zm-1.796875 9.625q1.578125 0 2.5 -1.859375q0.9375 -1.859375 0.9375 -4.109375q0 -2.65625 -1.859375 -2.65625q-1.546875 0 -2.5 1.875q-0.953125 1.859375 -0.953125 4.140625q0 2.609375 1.875 2.609375zm14.572144 0.75l-1.8125 0q0 -0.421875 0.234375 -1.96875q0.25 -1.546875 0.421875 -2.3125l0.4375 -1.96875q0.28125 -1.140625 0.28125 -1.765625q0 -1.125 -0.875 -1.125q-1.0625 0 -2.1875 1.453125q-1.109375 1.4375 -1.40625 2.828125l-1.015625 4.859375l-1.78125 0l1.609375 -7.640625q0.109375 -0.53125 0.109375 -0.84375q0 -0.90625 -1.328125 -0.90625l-0.15625 0l0.171875 -0.796875l3.515625 0l-0.515625 2.390625l0.1875 0q1.546875 -2.5625 3.46875 -2.5625q2.03125 0 2.03125 2.109375q0 0.234375 -0.046875 0.453125l0.1875 0q1.546875 -2.5625 3.46875 -2.5625q2.03125 0 2.03125 2.109375q0 0.609375 -0.34375 2.09375l-0.5 2.234375q-0.234375 1.109375 -0.234375 2.0q0 0.90625 0.65625 0.90625q0.546875 0 1.21875 -0.4375l0.34375 0.5625q-1.203125 1.078125 -2.328125 1.078125q-0.78125 0 -1.25 -0.5q-0.46875 -0.515625 -0.46875 -1.390625q0 -0.875 0.359375 -2.578125l0.328125 -1.484375q0.390625 -1.828125 0.390625 -2.25q0 -1.125 -0.875 -1.125q-0.96875 0 -2.015625 1.25q-1.03125 1.25 -1.453125 2.609375l-0.3125 1.359375q-0.109375 0.53125 -0.328125 2.046875q-0.21875 1.5 -0.21875 1.875zm11.794037 3.765625l-0.171875 0.796875l-3.5625 0l2.515625 -12.046875q0.171875 -0.796875 0.171875 -1.0q0 -0.90625 -1.328125 -0.90625l-0.15625 0l0.171875 -0.796875l3.375 0l-0.453125 2.53125l0.09375 0q1.359375 -2.71875 3.46875 -2.71875q1.15625 0 1.78125 0.890625q0.640625 0.875 0.640625 2.546875q0 2.546875 -1.59375 4.84375q-1.59375 2.28125 -4.078125 2.28125q-1.09375 0 -1.859375 -0.4375q-0.078125 0.609375 -0.15625 0.921875l-0.265625 1.15625q-0.171875 0.78125 -0.171875 1.0625q0 0.875 1.328125 0.875l0.25 0zm-0.6875 -5.109375q0.609375 0.671875 1.5 0.671875q1.59375 0 2.6875 -2.0625q1.09375 -2.078125 1.09375 -4.21875q0 -2.21875 -1.1875 -2.21875q-0.984375 0 -1.984375 1.375q-1.0 1.359375 -1.328125 2.828125l-0.78125 3.625zm9.767426 -12.296875l0.171875 -0.796875l3.578125 0l-2.1875 10.359375q-0.296875 1.34375 -0.296875 2.109375q0 0.953125 0.640625 0.953125q0.546875 0 1.359375 -0.484375l0.34375 0.546875q-1.3125 1.140625 -2.578125 1.140625q-0.6875 0 -1.125 -0.5q-0.4375 -0.5 -0.4375 -1.296875q0 -0.90625 0.421875 -3.0l1.546875 -7.28125q0.125 -0.5625 0.125 -0.859375q0 -0.890625 -1.34375 -0.890625l-0.21875 0zm11.362732 11.265625q0.203125 0.125 0.203125 0.46875q0 0.765625 -0.90625 1.4375q-0.890625 0.65625 -2.390625 0.65625q-1.65625 0 -2.6875 -1.046875q-1.015625 -1.046875 -1.015625 -2.875q0 -2.484375 1.609375 -4.5625q1.609375 -2.078125 4.046875 -2.078125q1.21875 0 1.875 0.578125q0.671875 0.578125 0.671875 1.609375q0 1.53125 -1.609375 2.671875q-1.59375 1.140625 -3.90625 1.140625l-0.328125 0q-0.171875 0 -0.34375 -0.015625q-0.03125 0.265625 -0.03125 0.796875q0 2.578125 2.078125 2.578125q1.625 0 2.734375 -1.359375zm-4.609375 -2.890625l0.1875 0q1.6875 0 2.765625 -0.8125q1.09375 -0.8125 1.09375 -2.109375q0 -1.28125 -1.09375 -1.28125q-0.921875 0 -1.71875 1.15625q-0.796875 1.15625 -1.234375 3.046875zm5.8255615 5.265625l0.203125 -0.796875l0.25 0q0.515625 0 0.890625 -0.234375q0.390625 -0.234375 1.078125 -1.078125l2.4375 -2.953125l-1.234375 -2.953125q-0.359375 -0.875 -0.609375 -1.125q-0.234375 -0.25 -0.75 -0.25l-0.25 0l0.15625 -0.796875l2.515625 0l1.453125 3.84375l2.515625 -3.84375l2.4375 0l-0.3125 0.796875l-0.234375 0q-0.5625 0 -0.9375 0.28125q-0.375 0.265625 -1.046875 1.09375l-1.984375 2.5625l1.296875 3.296875q0.34375 0.84375 0.578125 1.109375q0.234375 0.25 0.796875 0.25l0.25 0l-0.15625 0.796875l-2.546875 0l-1.546875 -4.1875l-2.84375 4.1875l-2.40625 0zm14.825073 -12.09375q-1.078125 0 -1.078125 -1.03125q0 -0.609375 0.3125 -0.96875q0.3125 -0.375 0.828125 -0.375q1.078125 0 1.078125 1.046875q0 0.65625 -0.328125 1.0q-0.3125 0.328125 -0.8125 0.328125zm-3.09375 2.703125l0.171875 -0.796875l3.40625 0l-1.296875 6.109375q-0.28125 1.359375 -0.28125 2.109375q0 0.953125 0.625 0.953125q0.546875 0 1.375 -0.484375l0.34375 0.546875q-1.328125 1.140625 -2.578125 1.140625q-0.703125 0 -1.140625 -0.5q-0.4375 -0.515625 -0.4375 -1.296875q0 -0.859375 0.4375 -3.0l0.734375 -3.484375q0.0625 -0.296875 0.0625 -0.5q0 -0.796875 -1.171875 -0.796875l-0.25 0zm10.222107 7.96875l0.328125 0.703125q-1.28125 0.90625 -2.5625 0.90625q-2.078125 0 -2.078125 -2.21875q0 -0.71875 0.1875 -1.59375l1.15625 -5.46875l-1.4375 0l0.171875 -0.765625q1.859375 0 2.90625 -2.671875l0.875 0l-0.5 2.34375l2.296875 0l-0.21875 1.09375l-2.3125 0l-1.140625 5.40625q-0.234375 1.09375 -0.234375 1.640625q0 1.03125 1.015625 1.03125q0.765625 0 1.546875 -0.40625zm2.6654053 -6.953125q-0.15625 -0.5625 -0.453125 -0.78125q-0.28125 -0.234375 -0.84375 -0.234375l-0.203125 0l0.15625 -0.796875l2.765625 0l1.484375 5.125q0.6875 2.390625 0.796875 3.453125l0.0625 0q2.5625 -3.90625 2.5625 -6.3125q0 -1.03125 -0.9375 -1.03125q0 -0.640625 0.375 -1.015625q0.375 -0.390625 0.875 -0.390625q1.28125 0 1.28125 1.59375q0 2.296875 -2.5625 6.453125q-2.546875 4.15625 -4.09375 5.515625q-1.546875 1.359375 -4.078125 1.359375q-1.0 0 -1.78125 -0.34375l0.28125 -0.953125q0.671875 0.21875 1.484375 0.21875q2.71875 0 5.34375 -3.46875l-2.515625 -8.390625z" fill-rule="nonzero"></path><path fill="#000000" fill-opacity="0.0" d="m112.73753 311.60104l181.35432 0l0 36.59842l-181.35432 0z" fill-rule="nonzero"></path><path fill="#000000" d="m125.25316 337.56793l3.671875 0q1.59375 0 2.140625 -1.546875l0.296875 -0.828125l1.0 0l-0.84375 3.328125l-10.1875 0l0.15625 -0.796875l0.25 0q0.96875 0 1.34375 -0.328125q0.375 -0.34375 0.5 -0.9375l1.984375 -9.34375q0.046875 -0.25 0.046875 -0.453125q0 -0.4375 -0.265625 -0.671875q-0.25 -0.234375 -1.0625 -0.234375l-0.25 0l0.171875 -0.796875l9.578125 0l-0.609375 3.3125l-0.984375 0l0.046875 -0.578125q0.046875 -0.4375 0.046875 -0.515625q0 -1.28125 -1.359375 -1.28125l-3.1875 0l-1.078125 5.0625l4.578125 0l-0.1875 0.921875l-4.578125 0l-1.21875 5.6875zm15.514343 -6.65625q0 -1.515625 -0.75 -1.515625q-0.890625 0 -1.875 1.734375q-0.984375 1.734375 -1.453125 3.9375l-0.71875 3.453125l-1.78125 0l1.609375 -7.640625q0.109375 -0.53125 0.109375 -0.84375q0 -0.90625 -1.515625 -0.90625l-0.15625 0l0.171875 -0.796875l3.359375 0l-0.390625 2.734375l0.1875 0q0.765625 -1.6875 1.5 -2.296875q0.75 -0.625 1.734375 -0.625q1.546875 0 1.546875 1.3125q0 1.453125 -1.578125 1.453125zm8.726898 0q0 -1.515625 -0.75 -1.515625q-0.890625 0 -1.875 1.734375q-0.984375 1.734375 -1.453125 3.9375l-0.71875 3.453125l-1.78125 0l1.609375 -7.640625q0.109375 -0.53125 0.109375 -0.84375q0 -0.90625 -1.515625 -0.90625l-0.15625 0l0.171875 -0.796875l3.359375 0l-0.390625 2.734375l0.1875 0q0.765625 -1.6875 1.5 -2.296875q0.75 -0.625 1.734375 -0.625q1.546875 0 1.546875 1.3125q0 1.453125 -1.578125 1.453125zm7.789398 -2.765625q1.6875 0 2.640625 1.015625q0.96875 1.015625 0.96875 2.921875q0 2.53125 -1.546875 4.578125q-1.546875 2.046875 -4.0625 2.046875q-1.71875 0 -2.6875 -1.03125q-0.96875 -1.046875 -0.96875 -2.890625q0 -2.5625 1.5625 -4.59375q1.5625 -2.046875 4.09375 -2.046875zm-1.796875 9.625q1.578125 0 2.5 -1.859375q0.9375 -1.859375 0.9375 -4.109375q0 -2.65625 -1.859375 -2.65625q-1.546875 0 -2.5 1.875q-0.953125 1.859375 -0.953125 4.140625q0 2.609375 1.875 2.609375zm13.447144 -6.859375q0 -1.515625 -0.75 -1.515625q-0.890625 0 -1.875 1.734375q-0.984375 1.734375 -1.453125 3.9375l-0.71875 3.453125l-1.78125 0l1.609375 -7.640625q0.109375 -0.53125 0.109375 -0.84375q0 -0.90625 -1.515625 -0.90625l-0.15625 0l0.171875 -0.796875l3.359375 0l-0.390625 2.734375l0.1875 0q0.765625 -1.6875 1.5 -2.296875q0.75 -0.625 1.734375 -0.625q1.546875 0 1.546875 1.3125q0 1.453125 -1.578125 1.453125z" fill-rule="nonzero"></path><path fill="#000000" fill-opacity="0.0" d="m440.48688 559.66406l0 -437.57483" fill-rule="nonzero"></path><path stroke="#000000" stroke-width="1.0" stroke-linejoin="round" stroke-linecap="butt" stroke-dasharray="1.0,3.0" d="m440.48688 559.66406l0 -437.57483" fill-rule="nonzero"></path><path fill="#000000" fill-opacity="0.0" d="m329.25986 130.23097l131.71652 0l0 114.17323l-131.71652 0z" fill-rule="nonzero"></path><path fill="#000000" d="m344.7286 146.77597q1.6875 0 2.640625 1.015625q0.96875 1.015625 0.96875 2.921875q0 2.53125 -1.546875 4.578125q-1.546875 2.046875 -4.0625 2.046875q-1.71875 0 -2.6875 -1.03125q-0.96875 -1.046875 -0.96875 -2.890625q0 -2.5625 1.5625 -4.59375q1.5625 -2.046875 4.09375 -2.046875zm-1.796875 9.625q1.578125 0 2.5 -1.859375q0.9375 -1.859375 0.9375 -4.109375q0 -2.65625 -1.859375 -2.65625q-1.546875 0 -2.5 1.875q-0.953125 1.859375 -0.953125 4.140625q0 2.609375 1.875 2.609375zm9.650269 4.515625l-0.171875 0.796875l-3.5625 0l2.515625 -12.046875q0.171875 -0.796875 0.171875 -1.0q0 -0.90625 -1.328125 -0.90625l-0.15625 0l0.171875 -0.796875l3.375 0l-0.453125 2.53125l0.09375 0q1.359375 -2.71875 3.46875 -2.71875q1.15625 0 1.78125 0.890625q0.640625 0.875 0.640625 2.546875q0 2.546875 -1.59375 4.84375q-1.59375 2.28125 -4.078125 2.28125q-1.09375 0 -1.859375 -0.4375q-0.078125 0.609375 -0.15625 0.921875l-0.265625 1.15625q-0.171875 0.78125 -0.171875 1.0625q0 0.875 1.328125 0.875l0.25 0zm-0.6875 -5.109375q0.609375 0.671875 1.5 0.671875q1.59375 0 2.6875 -2.0625q1.09375 -2.078125 1.09375 -4.21875q0 -2.21875 -1.1875 -2.21875q-0.984375 0 -1.984375 1.375q-1.0 1.359375 -1.328125 2.828125l-0.78125 3.625zm13.564301 -0.078125l0.328125 0.703125q-1.28125 0.90625 -2.5625 0.90625q-2.078125 0 -2.078125 -2.21875q0 -0.71875 0.1875 -1.59375l1.15625 -5.46875l-1.4375 0l0.171875 -0.765625q1.859375 0 2.90625 -2.671875l0.875 0l-0.5 2.34375l2.296875 0l-0.21875 1.09375l-2.3125 0l-1.140625 5.40625q-0.234375 1.09375 -0.234375 1.640625q0 1.03125 1.015625 1.03125q0.765625 0 1.546875 -0.40625zm5.415436 -10.671875q-1.078125 0 -1.078125 -1.03125q0 -0.609375 0.3125 -0.96875q0.3125 -0.375 0.828125 -0.375q1.078125 0 1.078125 1.046875q0 0.65625 -0.328125 1.0q-0.3125 0.328125 -0.8125 0.328125zm-3.09375 2.703125l0.171875 -0.796875l3.40625 0l-1.296875 6.109375q-0.28125 1.359375 -0.28125 2.109375q0 0.953125 0.625 0.953125q0.546875 0 1.375 -0.484375l0.34375 0.546875q-1.328125 1.140625 -2.578125 1.140625q-0.703125 0 -1.140625 -0.5q-0.4375 -0.515625 -0.4375 -1.296875q0 -0.859375 0.4375 -3.0l0.734375 -3.484375q0.0625 -0.296875 0.0625 -0.5q0 -0.796875 -1.171875 -0.796875l-0.25 0zm13.034576 9.390625l-1.8125 0q0 -0.421875 0.234375 -1.96875q0.25 -1.546875 0.421875 -2.3125l0.4375 -1.96875q0.28125 -1.140625 0.28125 -1.765625q0 -1.125 -0.875 -1.125q-1.0625 0 -2.1875 1.453125q-1.109375 1.4375 -1.40625 2.828125l-1.015625 4.859375l-1.78125 0l1.609375 -7.640625q0.109375 -0.53125 0.109375 -0.84375q0 -0.90625 -1.328125 -0.90625l-0.15625 0l0.171875 -0.796875l3.515625 0l-0.515625 2.390625l0.1875 0q1.546875 -2.5625 3.46875 -2.5625q2.03125 0 2.03125 2.109375q0 0.234375 -0.046875 0.453125l0.1875 0q1.546875 -2.5625 3.46875 -2.5625q2.03125 0 2.03125 2.109375q0 0.609375 -0.34375 2.09375l-0.5 2.234375q-0.234375 1.109375 -0.234375 2.0q0 0.90625 0.65625 0.90625q0.546875 0 1.21875 -0.4375l0.34375 0.5625q-1.203125 1.078125 -2.328125 1.078125q-0.78125 0 -1.25 -0.5q-0.46875 -0.515625 -0.46875 -1.390625q0 -0.875 0.359375 -2.578125l0.328125 -1.484375q0.390625 -1.828125 0.390625 -2.25q0 -1.125 -0.875 -1.125q-0.96875 0 -2.015625 1.25q-1.03125 1.25 -1.453125 2.609375l-0.3125 1.359375q-0.109375 0.53125 -0.328125 2.046875q-0.21875 1.5 -0.21875 1.875zm9.434692 -10.1875l3.53125 0l-1.25 5.6875q-0.375 1.71875 -0.375 2.296875q0 1.15625 0.921875 1.15625q0.984375 0 2.109375 -1.40625q1.125 -1.40625 1.46875 -3.0l0.984375 -4.734375l1.84375 0l-1.3125 6.109375q-0.28125 1.34375 -0.28125 2.109375q0 0.953125 0.625 0.953125q0.546875 0 1.21875 -0.40625l0.34375 0.546875q-1.203125 1.0625 -2.40625 1.0625q-0.71875 0 -1.171875 -0.5q-0.4375 -0.515625 -0.4375 -1.296875q0 -0.5 0.09375 -1.125l-0.140625 0q-1.03125 1.6875 -1.84375 2.296875q-0.8125 0.609375 -1.828125 0.609375q-2.03125 0 -2.03125 -2.109375q0 -0.609375 0.34375 -2.09375l0.734375 -3.328125q0.171875 -0.75 0.171875 -1.125q0 -0.90625 -1.328125 -0.90625l-0.15625 0l0.171875 -0.796875zm18.458588 10.1875l-1.8125 0q0 -0.421875 0.234375 -1.96875q0.25 -1.546875 0.421875 -2.3125l0.4375 -1.96875q0.28125 -1.140625 0.28125 -1.765625q0 -1.125 -0.875 -1.125q-1.0625 0 -2.1875 1.453125q-1.109375 1.4375 -1.40625 2.828125l-1.015625 4.859375l-1.78125 0l1.609375 -7.640625q0.109375 -0.53125 0.109375 -0.84375q0 -0.90625 -1.328125 -0.90625l-0.15625 0l0.171875 -0.796875l3.515625 0l-0.515625 2.390625l0.1875 0q1.546875 -2.5625 3.46875 -2.5625q2.03125 0 2.03125 2.109375q0 0.234375 -0.046875 0.453125l0.1875 0q1.546875 -2.5625 3.46875 -2.5625q2.03125 0 2.03125 2.109375q0 0.609375 -0.34375 2.09375l-0.5 2.234375q-0.234375 1.109375 -0.234375 2.0q0 0.90625 0.65625 0.90625q0.546875 0 1.21875 -0.4375l0.34375 0.5625q-1.203125 1.078125 -2.328125 1.078125q-0.78125 0 -1.25 -0.5q-0.46875 -0.515625 -0.46875 -1.390625q0 -0.875 0.359375 -2.578125l0.328125 -1.484375q0.390625 -1.828125 0.390625 -2.25q0 -1.125 -0.875 -1.125q-0.96875 0 -2.015625 1.25q-1.03125 1.25 -1.453125 2.609375l-0.3125 1.359375q-0.109375 0.53125 -0.328125 2.046875q-0.21875 1.5 -0.21875 1.875z" fill-rule="nonzero"></path><path fill="#000000" d="m346.7911 179.15097l-1.8125 0q0 -0.421875 0.234375 -1.96875q0.25 -1.546875 0.421875 -2.3125l0.4375 -1.96875q0.28125 -1.140625 0.28125 -1.765625q0 -1.125 -0.875 -1.125q-1.0625 0 -2.1875 1.453125q-1.109375 1.4375 -1.40625 2.828125l-1.015625 4.859375l-1.78125 0l1.609375 -7.640625q0.109375 -0.53125 0.109375 -0.84375q0 -0.90625 -1.328125 -0.90625l-0.15625 0l0.171875 -0.796875l3.515625 0l-0.515625 2.390625l0.1875 0q1.546875 -2.5625 3.46875 -2.5625q2.03125 0 2.03125 2.109375q0 0.234375 -0.046875 0.453125l0.1875 0q1.546875 -2.5625 3.46875 -2.5625q2.03125 0 2.03125 2.109375q0 0.609375 -0.34375 2.09375l-0.5 2.234375q-0.234375 1.109375 -0.234375 2.0q0 0.90625 0.65625 0.90625q0.546875 0 1.21875 -0.4375l0.34375 0.5625q-1.203125 1.078125 -2.328125 1.078125q-0.78125 0 -1.25 -0.5q-0.46875 -0.515625 -0.46875 -1.390625q0 -0.875 0.359375 -2.578125l0.328125 -1.484375q0.390625 -1.828125 0.390625 -2.25q0 -1.125 -0.875 -1.125q-0.96875 0 -2.015625 1.25q-1.03125 1.25 -1.453125 2.609375l-0.3125 1.359375q-0.109375 0.53125 -0.328125 2.046875q-0.21875 1.5 -0.21875 1.875zm14.653412 -10.375q1.6875 0 2.640625 1.015625q0.96875 1.015625 0.96875 2.921875q0 2.53125 -1.546875 4.578125q-1.546875 2.046875 -4.0625 2.046875q-1.71875 0 -2.6875 -1.03125q-0.96875 -1.046875 -0.96875 -2.890625q0 -2.5625 1.5625 -4.59375q1.5625 -2.046875 4.09375 -2.046875zm-1.796875 9.625q1.578125 0 2.5 -1.859375q0.9375 -1.859375 0.9375 -4.109375q0 -2.65625 -1.859375 -2.65625q-1.546875 0 -2.5 1.875q-0.953125 1.859375 -0.953125 4.140625q0 2.609375 1.875 2.609375zm12.978394 -2.109375l-0.125 0q-1.359375 3.046875 -3.546875 3.046875q-1.15625 0 -1.8125 -0.90625q-0.640625 -0.921875 -0.640625 -2.5625q0 -2.625 1.625 -4.859375q1.640625 -2.234375 4.03125 -2.234375q1.078125 0 1.875 0.453125q0.140625 -0.875 0.203125 -1.0625l0.1875 -0.90625q0.140625 -0.640625 0.140625 -0.859375q0 -0.890625 -1.328125 -0.890625l-0.15625 0l0.171875 -0.796875l3.5 0l-2.21875 10.359375q-0.265625 1.296875 -0.265625 2.109375q0 0.953125 0.609375 0.953125q0.546875 0 1.375 -0.484375l0.34375 0.546875q-1.359375 1.140625 -2.671875 1.140625q-1.484375 0 -1.484375 -1.578125q0 -0.609375 0.1875 -1.46875zm1.078125 -5.96875q-0.4375 -0.6875 -1.4375 -0.6875q-1.625 0 -2.734375 2.0625q-1.09375 2.0625 -1.09375 4.25q0 2.1875 1.203125 2.1875q0.953125 0 1.984375 -1.390625q1.046875 -1.40625 1.375 -3.0625l0.703125 -3.359375zm10.397614 6.453125q0.203125 0.125 0.203125 0.46875q0 0.765625 -0.90625 1.4375q-0.890625 0.65625 -2.390625 0.65625q-1.65625 0 -2.6875 -1.046875q-1.015625 -1.046875 -1.015625 -2.875q0 -2.484375 1.609375 -4.5625q1.609375 -2.078125 4.046875 -2.078125q1.21875 0 1.875 0.578125q0.671875 0.578125 0.671875 1.609375q0 1.53125 -1.609375 2.671875q-1.59375 1.140625 -3.90625 1.140625l-0.328125 0q-0.171875 0 -0.34375 -0.015625q-0.03125 0.265625 -0.03125 0.796875q0 2.578125 2.078125 2.578125q1.625 0 2.734375 -1.359375zm-4.609375 -2.890625l0.1875 0q1.6875 0 2.765625 -0.8125q1.09375 -0.8125 1.09375 -2.109375q0 -1.28125 -1.09375 -1.28125q-0.921875 0 -1.71875 1.15625q-0.796875 1.15625 -1.234375 3.046875zm8.122467 -8.375l0.171875 -0.796875l3.578125 0l-2.1875 10.359375q-0.296875 1.34375 -0.296875 2.109375q0 0.953125 0.640625 0.953125q0.546875 0 1.359375 -0.484375l0.34375 0.546875q-1.3125 1.140625 -2.578125 1.140625q-0.6875 0 -1.125 -0.5q-0.4375 -0.5 -0.4375 -1.296875q0 -0.90625 0.421875 -3.0l1.546875 -7.28125q0.125 -0.5625 0.125 -0.859375q0 -0.890625 -1.34375 -0.890625l-0.21875 0z" fill-rule="nonzero"></path><path fill="#000000" d="m345.86923 198.77597q0.203125 0.125 0.203125 0.46875q0 0.765625 -0.90625 1.4375q-0.890625 0.65625 -2.390625 0.65625q-1.65625 0 -2.6875 -1.046875q-1.015625 -1.046875 -1.015625 -2.875q0 -2.484375 1.609375 -4.5625q1.609375 -2.078125 4.046875 -2.078125q1.3125 0 2.046875 0.53125q0.734375 0.515625 0.734375 1.296875q0 0.5625 -0.46875 0.953125q-0.453125 0.375 -1.21875 0.375q0 -1.015625 -0.390625 -1.625q-0.390625 -0.625 -1.078125 -0.625q-1.328125 0 -2.3125 1.984375q-0.984375 1.984375 -0.984375 3.890625q0 2.578125 2.078125 2.578125q1.671875 0 2.734375 -1.359375zm7.9415283 -8.0q1.6875 0 2.640625 1.015625q0.96875 1.015625 0.96875 2.921875q0 2.53125 -1.546875 4.578125q-1.546875 2.046875 -4.0625 2.046875q-1.71875 0 -2.6875 -1.03125q-0.96875 -1.046875 -0.96875 -2.890625q0 -2.5625 1.5625 -4.59375q1.5625 -2.046875 4.09375 -2.046875zm-1.796875 9.625q1.578125 0 2.5 -1.859375q0.9375 -1.859375 0.9375 -4.109375q0 -2.65625 -1.859375 -2.65625q-1.546875 0 -2.5 1.875q-0.953125 1.859375 -0.953125 4.140625q0 2.609375 1.875 2.609375zm14.572144 0.75l-1.8125 0q0 -0.421875 0.234375 -1.96875q0.25 -1.546875 0.421875 -2.3125l0.4375 -1.96875q0.28125 -1.140625 0.28125 -1.765625q0 -1.125 -0.875 -1.125q-1.0625 0 -2.1875 1.453125q-1.109375 1.4375 -1.40625 2.828125l-1.015625 4.859375l-1.78125 0l1.609375 -7.640625q0.109375 -0.53125 0.109375 -0.84375q0 -0.90625 -1.328125 -0.90625l-0.15625 0l0.171875 -0.796875l3.515625 0l-0.515625 2.390625l0.1875 0q1.546875 -2.5625 3.46875 -2.5625q2.03125 0 2.03125 2.109375q0 0.234375 -0.046875 0.453125l0.1875 0q1.546875 -2.5625 3.46875 -2.5625q2.03125 0 2.03125 2.109375q0 0.609375 -0.34375 2.09375l-0.5 2.234375q-0.234375 1.109375 -0.234375 2.0q0 0.90625 0.65625 0.90625q0.546875 0 1.21875 -0.4375l0.34375 0.5625q-1.203125 1.078125 -2.328125 1.078125q-0.78125 0 -1.25 -0.5q-0.46875 -0.515625 -0.46875 -1.390625q0 -0.875 0.359375 -2.578125l0.328125 -1.484375q0.390625 -1.828125 0.390625 -2.25q0 -1.125 -0.875 -1.125q-0.96875 0 -2.015625 1.25q-1.03125 1.25 -1.453125 2.609375l-0.3125 1.359375q-0.109375 0.53125 -0.328125 2.046875q-0.21875 1.5 -0.21875 1.875zm11.794067 3.765625l-0.171875 0.796875l-3.5625 0l2.515625 -12.046875q0.171875 -0.796875 0.171875 -1.0q0 -0.90625 -1.328125 -0.90625l-0.15625 0l0.171875 -0.796875l3.375 0l-0.453125 2.53125l0.09375 0q1.359375 -2.71875 3.46875 -2.71875q1.15625 0 1.78125 0.890625q0.640625 0.875 0.640625 2.546875q0 2.546875 -1.59375 4.84375q-1.59375 2.28125 -4.078125 2.28125q-1.09375 0 -1.859375 -0.4375q-0.078125 0.609375 -0.15625 0.921875l-0.265625 1.15625q-0.171875 0.78125 -0.171875 1.0625q0 0.875 1.328125 0.875l0.25 0zm-0.6875 -5.109375q0.609375 0.671875 1.5 0.671875q1.59375 0 2.6875 -2.0625q1.09375 -2.078125 1.09375 -4.21875q0 -2.21875 -1.1875 -2.21875q-0.984375 0 -1.984375 1.375q-1.0 1.359375 -1.328125 2.828125l-0.78125 3.625zm9.767426 -12.296875l0.171875 -0.796875l3.578125 0l-2.1875 10.359375q-0.296875 1.34375 -0.296875 2.109375q0 0.953125 0.640625 0.953125q0.546875 0 1.359375 -0.484375l0.34375 0.546875q-1.3125 1.140625 -2.578125 1.140625q-0.6875 0 -1.125 -0.5q-0.4375 -0.5 -0.4375 -1.296875q0 -0.90625 0.421875 -3.0l1.546875 -7.28125q0.125 -0.5625 0.125 -0.859375q0 -0.890625 -1.34375 -0.890625l-0.21875 0zm11.362701 11.265625q0.203125 0.125 0.203125 0.46875q0 0.765625 -0.90625 1.4375q-0.890625 0.65625 -2.390625 0.65625q-1.65625 0 -2.6875 -1.046875q-1.015625 -1.046875 -1.015625 -2.875q0 -2.484375 1.609375 -4.5625q1.609375 -2.078125 4.046875 -2.078125q1.21875 0 1.875 0.578125q0.671875 0.578125 0.671875 1.609375q0 1.53125 -1.609375 2.671875q-1.59375 1.140625 -3.90625 1.140625l-0.328125 0q-0.171875 0 -0.34375 -0.015625q-0.03125 0.265625 -0.03125 0.796875q0 2.578125 2.078125 2.578125q1.625 0 2.734375 -1.359375zm-4.609375 -2.890625l0.1875 0q1.6875 0 2.765625 -0.8125q1.09375 -0.8125 1.09375 -2.109375q0 -1.28125 -1.09375 -1.28125q-0.921875 0 -1.71875 1.15625q-0.796875 1.15625 -1.234375 3.046875zm5.825592 5.265625l0.203125 -0.796875l0.25 0q0.515625 0 0.890625 -0.234375q0.390625 -0.234375 1.078125 -1.078125l2.4375 -2.953125l-1.234375 -2.953125q-0.359375 -0.875 -0.609375 -1.125q-0.234375 -0.25 -0.75 -0.25l-0.25 0l0.15625 -0.796875l2.515625 0l1.453125 3.84375l2.515625 -3.84375l2.4375 0l-0.3125 0.796875l-0.234375 0q-0.5625 0 -0.9375 0.28125q-0.375 0.265625 -1.046875 1.09375l-1.984375 2.5625l1.296875 3.296875q0.34375 0.84375 0.578125 1.109375q0.234375 0.25 0.796875 0.25l0.25 0l-0.15625 0.796875l-2.546875 0l-1.546875 -4.1875l-2.84375 4.1875l-2.40625 0zm14.825043 -12.09375q-1.078125 0 -1.078125 -1.03125q0 -0.609375 0.3125 -0.96875q0.3125 -0.375 0.828125 -0.375q1.078125 0 1.078125 1.046875q0 0.65625 -0.328125 1.0q-0.3125 0.328125 -0.8125 0.328125zm-3.09375 2.703125l0.171875 -0.796875l3.40625 0l-1.296875 6.109375q-0.28125 1.359375 -0.28125 2.109375q0 0.953125 0.625 0.953125q0.546875 0 1.375 -0.484375l0.34375 0.546875q-1.328125 1.140625 -2.578125 1.140625q-0.703125 0 -1.140625 -0.5q-0.4375 -0.515625 -0.4375 -1.296875q0 -0.859375 0.4375 -3.0l0.734375 -3.484375q0.0625 -0.296875 0.0625 -0.5q0 -0.796875 -1.171875 -0.796875l-0.25 0zm10.222107 7.96875l0.328125 0.703125q-1.28125 0.90625 -2.5625 0.90625q-2.078125 0 -2.078125 -2.21875q0 -0.71875 0.1875 -1.59375l1.15625 -5.46875l-1.4375 0l0.171875 -0.765625q1.859375 0 2.90625 -2.671875l0.875 0l-0.5 2.34375l2.296875 0l-0.21875 1.09375l-2.3125 0l-1.140625 5.40625q-0.234375 1.09375 -0.234375 1.640625q0 1.03125 1.015625 1.03125q0.765625 0 1.546875 -0.40625zm2.6654358 -6.953125q-0.15625 -0.5625 -0.453125 -0.78125q-0.28125 -0.234375 -0.84375 -0.234375l-0.203125 0l0.15625 -0.796875l2.765625 0l1.484375 5.125q0.6875 2.390625 0.796875 3.453125l0.0625 0q2.5625 -3.90625 2.5625 -6.3125q0 -1.03125 -0.9375 -1.03125q0 -0.640625 0.375 -1.015625q0.375 -0.390625 0.875 -0.390625q1.28125 0 1.28125 1.59375q0 2.296875 -2.5625 6.453125q-2.546875 4.15625 -4.09375 5.515625q-1.546875 1.359375 -4.078125 1.359375q-1.0 0 -1.78125 -0.34375l0.28125 -0.953125q0.671875 0.21875 1.484375 0.21875q2.71875 0 5.34375 -3.46875l-2.515625 -8.390625z" fill-rule="nonzero"></path></g></svg>

